<?xml version="1.0" standalone="no"?>
<!DOCTYPE svg PUBLIC "-//W3C//DTD SVG 20010904//EN"
 "http://www.w3.org/TR/2001/REC-SVG-20010904/DTD/svg10.dtd">
<svg version="1.0" xmlns="http://www.w3.org/2000/svg"
 width="4094.000000pt" height="4094.000000pt" viewBox="0 0 4094.000000 4094.000000"
 preserveAspectRatio="xMidYMid meet">

<g transform="translate(0.000000,4094.000000) scale(0.100000,-0.100000)"
fill="#000000" stroke="none">
<path d="M19977 40930 c-3190 -78 -6248 -872 -9047 -2347 -2175 -1147 -4119
-2672 -5762 -4520 -2915 -3279 -4688 -7366 -5083 -11718 -111 -1220 -111
-2458 1 -3715 488 -5513 3193 -10577 7526 -14088 1522 -1233 3293 -2282 5088
-3014 2080 -848 4237 -1344 6455 -1483 829 -52 1787 -51 2625 1 1368 85 2723
309 4065 673 3825 1036 7275 3178 9931 6166 2674 3008 4398 6730 4958 10701
217 1538 257 3068 120 4664 -411 4801 -2500 9278 -5929 12705 -240 240 -620
602 -760 724 -27 24 -120 105 -205 180 -943 828 -2011 1605 -3060 2224 -2203
1301 -4548 2157 -7060 2577 -1227 205 -2595 301 -3863 270z m798 -4219 c100
-24 314 -91 420 -131 44 -16 148 -54 230 -84 83 -30 258 -95 390 -146 132 -50
332 -127 445 -170 273 -105 536 -208 815 -320 127 -50 318 -125 425 -165 107
-41 303 -115 435 -165 132 -50 317 -120 410 -155 94 -35 271 -102 395 -150
124 -47 313 -119 420 -160 194 -73 473 -181 645 -248 50 -19 227 -88 395 -152
168 -64 388 -149 490 -189 102 -40 320 -126 485 -191 165 -65 395 -155 510
-200 116 -46 323 -126 460 -180 138 -53 288 -111 335 -130 85 -33 320 -124
760 -294 749 -288 1019 -395 1090 -431 100 -50 125 -109 74 -170 -15 -17 -43
-39 -63 -50 -44 -22 -384 -129 -671 -211 -113 -32 -259 -74 -325 -94 -66 -19
-196 -55 -290 -80 -93 -26 -204 -57 -245 -70 -41 -13 -172 -51 -290 -85 -118
-33 -258 -74 -310 -90 -52 -16 -160 -48 -240 -70 -80 -23 -179 -52 -220 -65
-41 -13 -176 -53 -300 -89 -124 -35 -373 -108 -555 -161 -181 -53 -418 -122
-525 -152 -265 -74 -364 -104 -372 -111 -7 -7 17 -152 63 -377 22 -113 104
-681 114 -795 3 -41 17 -185 30 -320 35 -351 45 -510 45 -717 0 -171 -2 -186
-26 -255 -14 -40 -46 -112 -71 -160 l-44 -87 26 -108 c38 -152 102 -544 116
-704 14 -170 14 -615 0 -779 -22 -243 -81 -539 -216 -1085 -72 -292 -88 -378
-110 -584 -31 -290 -18 -449 57 -691 108 -353 336 -769 698 -1275 162 -225
277 -390 325 -464 63 -98 140 -263 154 -329 14 -66 14 -193 0 -252 -49 -212
-250 -384 -621 -531 -57 -22 -130 -52 -163 -66 -33 -14 -98 -38 -145 -55 -47
-16 -140 -56 -208 -89 -199 -98 -262 -176 -262 -326 0 -116 31 -198 170 -454
130 -238 148 -275 177 -365 21 -68 28 -109 28 -174 0 -77 -3 -92 -33 -152 -58
-118 -185 -205 -396 -269 -56 -17 -105 -35 -110 -40 -5 -4 8 -35 32 -71 184
-282 211 -535 78 -716 -61 -82 -121 -139 -261 -245 -66 -50 -147 -119 -181
-153 -165 -172 -214 -433 -151 -809 48 -286 62 -455 49 -595 -38 -419 -240
-732 -590 -913 -240 -124 -486 -177 -859 -184 -233 -5 -269 -3 -658 38 -201
21 -656 94 -840 134 -152 33 -341 70 -530 105 -88 16 -232 42 -320 59 -524 98
-806 112 -1113 55 -291 -53 -575 -180 -812 -363 -114 -88 -306 -281 -414 -416
-175 -220 -366 -525 -516 -825 -60 -120 -79 -161 -177 -390 -84 -198 -196
-546 -232 -725 -11 -55 -29 -143 -40 -195 -11 -52 -29 -180 -41 -285 -63 -583
-87 -756 -135 -969 -145 -645 -467 -1413 -863 -2061 -164 -269 -301 -470 -662
-975 -621 -869 -683 -984 -684 -1265 0 -213 62 -380 199 -536 352 -398 1188
-684 2395 -818 339 -38 452 -47 845 -66 939 -47 1658 -25 2419 76 1189 158
2345 510 3396 1035 808 404 1644 991 2255 1583 872 846 1486 1673 1990 2681
158 316 336 728 435 1005 139 390 258 773 320 1030 95 392 139 600 190 895
124 717 200 1596 200 2315 -1 1524 -205 2857 -632 4130 -383 1143 -967 2248
-1692 3205 -156 205 -363 465 -479 600 -165 190 -519 571 -741 794 l-209 211
2 55 c2 62 34 370 56 535 63 475 70 934 19 1218 -9 48 -14 91 -11 94 7 6 222
-106 332 -174 170 -104 212 -131 364 -232 177 -119 489 -337 601 -421 811
-610 1399 -1157 2039 -1900 255 -296 407 -487 609 -765 275 -377 589 -869 787
-1230 106 -194 305 -586 363 -715 11 -25 37 -81 57 -125 69 -148 196 -458 282
-685 220 -582 406 -1214 517 -1760 20 -96 41 -193 46 -215 22 -97 93 -560 130
-851 61 -476 90 -955 90 -1459 0 -384 -24 -998 -51 -1285 -17 -193 -78 -700
-94 -785 -8 -44 -25 -156 -39 -250 -72 -481 -248 -1189 -431 -1725 -259 -758
-540 -1369 -953 -2070 -143 -243 -396 -635 -521 -805 -423 -577 -743 -954
-1181 -1395 -462 -465 -771 -737 -1270 -1117 -949 -723 -2039 -1301 -3201
-1698 -398 -137 -680 -219 -1114 -325 -483 -118 -968 -208 -1405 -259 -96 -12
-227 -28 -290 -36 -131 -17 -407 -39 -685 -55 -104 -6 -262 -15 -350 -20 -655
-39 -814 -38 -4170 22 -1041 19 -3464 15 -4110 -6 -509 -16 -1500 -57 -1840
-76 -343 -19 -661 -9 -782 25 -94 27 -176 157 -158 251 8 48 66 108 130 138
63 31 210 70 320 86 239 35 734 149 985 227 911 283 1749 706 2550 1286 570
414 1064 898 1374 1347 186 269 299 486 390 749 78 224 85 436 25 706 -74 330
-158 581 -304 905 -48 108 -241 497 -255 515 -4 6 -29 51 -55 100 -59 110
-118 213 -139 240 -19 25 -19 -35 -16 -1860 l2 -1270 -110 -130 c-114 -135
-276 -305 -397 -416 -109 -100 -487 -414 -567 -472 -40 -29 -107 -78 -148
-108 -175 -130 -437 -302 -680 -449 -158 -95 -376 -210 -398 -210 -10 0 -13 8
-9 28 80 448 127 992 147 1683 14 470 14 18403 0 18579 -35 456 -120 769 -268
988 -82 119 -265 264 -430 338 -164 75 -356 135 -597 189 -192 44 -608 115
-615 106 -3 -3 -4 -644 -2 -1424 l2 -1418 35 -14 c123 -52 297 -193 380 -309
107 -150 153 -297 142 -451 -13 -181 -118 -393 -256 -518 -23 -20 -41 -45 -41
-54 0 -10 11 -67 24 -128 14 -60 36 -166 50 -235 13 -69 36 -181 50 -250 119
-575 232 -1167 251 -1315 4 -27 22 -147 40 -265 19 -118 41 -285 50 -370 8
-85 22 -216 31 -290 21 -191 30 -609 15 -740 -37 -315 -99 -516 -216 -695 -93
-143 -221 -252 -379 -325 -146 -67 -229 -85 -406 -84 -169 0 -261 17 -402 74
-164 67 -319 193 -418 339 -134 200 -207 496 -217 886 -17 673 99 1454 477
3218 l32 147 -56 61 c-182 197 -280 465 -247 680 25 158 94 292 211 409 57 57
205 161 265 186 19 8 38 22 43 31 6 11 10 614 10 1465 l0 1446 -32 6 c-30 5
-166 23 -511 67 -310 39 -452 75 -497 125 -37 43 -68 117 -68 166 0 117 85
179 285 209 111 16 390 16 628 -1 98 -6 180 -10 183 -7 2 2 5 571 5 1263 -1
693 3 1314 8 1381 12 152 39 221 115 289 73 67 117 86 506 224 80 29 339 124
575 212 237 88 507 188 600 223 94 35 267 99 385 143 118 44 278 104 355 132
164 61 306 113 980 365 743 277 1011 376 1205 448 96 36 310 115 475 177 165
61 383 142 485 180 865 322 1120 416 1215 451 61 22 144 53 185 69 41 16 174
66 295 110 439 162 848 315 1230 462 349 134 465 178 845 317 58 22 197 69
310 106 113 37 210 68 215 70 28 10 119 3 190 -14z"/>
<path d="M11130 31387 l0 -1294 908 -6 c499 -4 1383 -7 1964 -7 l1057 0 5 33
c3 17 8 82 11 142 3 61 15 209 25 330 11 121 22 252 26 290 19 237 50 515 69
631 4 24 1 33 -12 37 -284 82 -2233 638 -2443 697 -162 45 -396 110 -520 145
-651 182 -1063 295 -1082 295 -5 0 -8 -582 -8 -1293z"/>
<path d="M20090 30149 c-523 -26 -1200 -78 -1425 -110 -38 -5 -140 -19 -225
-30 -141 -18 -486 -74 -518 -85 -18 -5 -8 -22 97 -147 314 -376 471 -541 762
-803 175 -157 455 -398 569 -489 121 -96 303 -251 327 -276 56 -61 84 -180 64
-266 -24 -97 -93 -149 -177 -133 -178 33 -670 366 -1049 710 -356 323 -589
568 -850 893 -89 111 -247 326 -281 383 -10 16 -21 15 -214 -20 -112 -20 -244
-49 -292 -63 l-88 -27 18 -27 c9 -15 49 -70 88 -121 39 -51 88 -118 109 -148
65 -92 344 -449 429 -550 431 -512 692 -793 1036 -1119 746 -706 1460 -1185
2160 -1449 266 -100 600 -191 749 -204 l33 -3 38 135 c20 74 60 214 88 310
250 870 272 1669 66 2390 -76 268 -200 552 -350 802 -78 130 -243 355 -303
413 l-42 40 -322 1 c-177 1 -401 -2 -497 -7z"/>
<path d="M21600 30123 c0 -5 30 -61 66 -124 267 -462 444 -928 529 -1391 47
-256 55 -329 62 -583 9 -333 -8 -525 -82 -923 -10 -51 -16 -95 -13 -97 9 -9
175 44 318 100 438 171 764 388 1116 739 312 313 505 605 643 973 67 180 136
442 175 663 14 80 28 159 32 177 l6 31 -68 21 c-163 48 -662 166 -934 221
-500 100 -855 144 -1450 179 -361 22 -400 23 -400 14z"/>
<path d="M24892 29451 c-7 -69 -27 -205 -46 -301 -199 -1014 -883 -1892 -1821
-2341 -261 -124 -578 -243 -900 -338 l-70 -20 -29 -73 c-17 -40 -58 -135 -92
-210 l-62 -138 69 0 c94 0 330 25 518 56 212 34 387 75 571 135 470 153 851
359 1230 667 151 123 468 445 593 602 319 402 579 870 772 1390 32 85 75 202
96 259 37 100 40 121 17 121 -14 0 -683 257 -728 280 -19 10 -51 22 -71 28
l-36 9 -11 -126z"/>
<path d="M16226 29440 c-362 -203 -638 -518 -805 -920 -77 -187 -156 -510
-186 -765 -27 -230 -38 -648 -30 -1108 7 -384 9 -426 23 -415 19 16 115 163
214 328 510 853 810 1720 888 2565 15 160 13 365 -2 365 -7 0 -53 -22 -102
-50z"/>
<path d="M16802 28709 c-29 -169 -148 -603 -252 -924 -219 -669 -549 -1346
-910 -1865 -43 -63 -160 -235 -259 -382 l-179 -267 -7 -173 c-9 -230 -10 -776
-7 -2642 2 -1450 3 -1557 19 -1545 9 8 73 84 143 169 364 445 565 669 885 987
436 434 831 767 1551 1309 773 582 1141 884 1478 1214 425 416 706 782 913
1185 35 69 52 110 44 113 -39 13 -351 175 -481 250 -683 392 -1251 840 -1901
1498 -310 314 -467 489 -768 859 -158 193 -239 285 -251 285 -3 0 -11 -32 -18
-71z"/>
<path d="M20651 25663 c-37 -91 -171 -346 -247 -470 -271 -442 -599 -819
-1091 -1259 -290 -259 -553 -465 -1308 -1024 -396 -293 -798 -618 -1022 -823
-284 -261 -665 -658 -899 -937 -798 -952 -1333 -2002 -1529 -3005 -41 -211
-80 -513 -97 -745 -9 -127 -9 -217 1 -396 11 -223 34 -476 47 -539 6 -28 7
-29 15 -8 4 12 17 84 29 160 65 434 176 868 336 1310 365 1012 997 1963 2014
3032 335 352 706 702 1365 1286 709 628 972 871 1295 1194 668 669 1124 1254
1495 1916 43 77 91 161 107 188 15 26 28 51 28 56 0 5 -26 15 -57 21 -32 6
-139 30 -238 52 -99 23 -189 43 -200 45 -17 4 -25 -6 -44 -54z"/>
</g>
</svg>
