<?xml version="1.0" encoding="utf-8" ?><svg xmlns="http://www.w3.org/2000/svg" xmlns:xlink="http://www.w3.org/1999/xlink" width="1024" height="1024" viewBox="0 0 1024 1024"><path fill="#2062A3" d="M479.154 105.562C480.262 105.498 481.381 105.438 482.491 105.495C488.879 105.825 543.423 127.884 553.833 131.876C593.521 146.832 633.102 162.073 672.571 177.596C689.014 183.982 705.508 190.315 721.943 196.718C723.585 197.357 723.93 197.642 725.082 198.931C725.566 200.777 725.597 199.886 724.972 201.7C721.576 204.289 691.121 212.225 684.717 214.105C661.278 221.089 637.8 227.938 614.283 234.654C617.801 248.522 621.067 277.713 621.072 292.52C621.073 295.548 618.906 299.647 617.506 302.422C620.957 318.122 622.415 328.942 620.708 345.067C618.895 362.2 609.654 381.656 613.352 398.389C616.157 411.083 626.366 425.938 633.952 436.478C636.653 440.231 642.439 447.788 643.342 451.93C649.484 473.149 613.773 472.988 609.344 482.603C603.604 495.067 635.606 514.007 604.341 522.183C612.537 536.621 611.318 540.608 598.451 550.02C586.473 558.782 595.071 575.511 593.901 587.529C593.149 595.258 589.838 602.151 583.548 607.173C560.763 624.542 511.405 605.842 484.772 603.916C470.799 602.905 459.308 606.217 448.865 615.13C433.297 628.419 420.199 656.529 416.49 676.228C414.513 686.729 414.663 697.957 411.891 709.236C408.615 723.576 402.951 737.065 396.246 750.121C386.088 769.838 370.995 786.975 359.49 805.768C354.43 814.034 356.391 825.666 363.315 831.743C383.532 849.487 431.727 851.824 456.552 852.531C526.954 854.536 597.935 831.122 648.274 781.017C702.525 727.689 722.57 659.804 722.931 585.083C723.274 514.132 702.956 449.684 658.082 394.216C648.649 382.556 639.751 373.671 629.323 363.054C629.419 349.899 634.838 329.484 630.517 315.408C635.412 317.314 644.137 323.013 648.766 326.079C675.727 343.755 699.747 365.553 719.95 390.676C763.377 444.568 786.757 511.86 786.101 581.068C786.085 595.976 784.724 611.695 783.091 626.51C779.743 648.87 775.932 666.315 767.969 687.584C741.9 757.219 687.653 814.483 620.555 845.667C591.362 859.117 560.235 867.892 528.314 871.669C511.785 873.657 495.156 874.707 478.509 874.816C470.561 874.943 462.581 874.667 454.626 874.599C402.147 874.146 349.191 872.335 296.73 873.685C283.182 874.015 269.637 874.467 256.098 875.042C248.63 875.379 228.844 877.131 222.492 874.803C214.459 864.324 229.256 863.637 235.311 862.571C260.011 858.224 285.212 847.682 306.612 834.32C329.622 819.952 356.501 797.498 364.695 770.744C369.089 754.478 353.806 724.581 344.975 710.421C344.194 736.051 345.634 763.392 344.968 789.35C332.884 805.949 305.934 825.243 287.432 834.559C287.552 834.021 287.664 833.481 287.767 832.94C292.518 807.169 291.417 763.847 291.458 736.283L291.439 592.391L291.488 416.543L291.521 360.832C291.528 344.811 293.703 316.531 284.92 302.716C277.42 290.919 255.883 288.374 243.036 286.262C243.499 292.957 243.209 303.438 243.239 310.436L243.35 357.301C257.961 365.456 262.622 378.458 249.698 391.116C254.281 413.729 264.527 459.216 262.614 480.412C261.841 488.98 259.42 498.094 252.384 503.693C246.991 507.984 239.926 509.185 233.226 508.229C226.783 507.31 221.329 504.173 217.558 498.837C203.059 478.321 219.924 417.37 224.386 392.266C213.104 379.246 213.871 365.941 230.023 357.862C230.188 333.497 230.197 309.132 230.049 284.767C226.866 284.253 205.776 282.319 204.582 280.693C194.256 266.623 223.185 270.866 230.022 271.109C230.038 263.188 229.095 204.166 230.92 200.304C231.768 198.508 233.482 196.825 235.262 195.963C239.128 194.091 243.536 192.844 247.579 191.378L269.122 183.394L343.06 155.828L434.219 122.057C447.989 116.956 465.405 109.736 479.154 105.562ZM344.528 501.439C349.092 496.348 353.35 490.795 357.884 485.601C366.829 475.265 376.628 465.7 387.176 457.006C415.448 432.908 455.541 410.192 470.698 376.361C441.457 362.564 416.531 340.599 395.752 315.99C394.108 314.043 386.834 304.69 385.31 303.755C378.625 333.61 369.051 357.926 350.794 382.632C349.632 384.205 345.131 390.754 344.945 392.313C343.826 401.723 344.354 423.088 344.369 431.319L344.528 501.439ZM399.301 278.168C393.639 278.687 389.923 279.563 384.469 281.296C387.192 285.497 389.662 288.819 392.659 292.789C418.518 326.132 456.904 365.495 500.265 372.176C502.156 364.833 504.51 357.962 506.122 350.488C511.737 324.453 508.653 297.482 492.804 275.538C489.803 271.382 489.692 269.929 484.499 269.255C460.853 269.583 435.546 270.965 412.272 275.235C424.076 292.102 440.757 304.794 456.218 317.939C459.421 320.662 459.554 329.494 453.023 328.158C434.424 319.757 409.402 294.091 399.301 278.168ZM341.674 269.984C342.473 259.501 343.487 245.408 344.943 235.054C311.046 225.152 277.062 215.549 242.995 206.249C243.58 227.788 242.557 250.157 243.36 271.359C252.949 271.095 263.214 271.418 272.867 271.471L320.599 271.514C323.677 271.513 339.992 271.832 341.693 271.188L341.674 269.984ZM327.964 613.934C328.437 610.053 328.85 606.354 329.62 602.51C332.236 590.941 335.09 580.245 339.53 569.219C354.382 532.337 384.462 500.459 413.817 474.439C446.366 445.588 474.631 422.508 494.91 383.279C490.494 382.347 486.084 381.39 481.679 380.406C466.023 417.246 433.238 436.048 403.103 459.65C357.806 495.128 317.127 553.25 327.964 613.934ZM518.609 348.929C534.766 343.485 540.883 340.245 553.96 328.783C569.172 312.859 573 302.507 576.214 281.077C548.11 273.579 533.934 271.172 504.355 270.1C519.476 295.539 525.164 319.443 518.609 348.929ZM587.287 283.626C586.137 305.026 576.559 325.1 560.646 339.456C545.855 352.8 533.803 356.249 516.093 362.345C514.486 365.907 512.97 369.509 511.548 373.149C518.349 372.552 525.196 371.969 531.888 370.549C572.226 361.54 597.413 330.658 608.872 292.178C602.817 289.733 592.569 286.21 587.287 283.626ZM345.387 368.621C358.874 347.938 368.02 328.628 372.208 304.149C373.027 299.36 374.139 291.232 373.292 286.435L372.858 285.974C346.886 299.348 344.572 325.479 344.833 351.848C344.883 356.891 344.489 363.723 345.387 368.621Z"/></svg>