<?xml version="1.0" encoding="UTF-8"?>
<svg version="1.1" xmlns="http://www.w3.org/2000/svg" width="1024" height="1024">
<path d="M0 0 C0 0.66 0 1.32 0 2 C1.258125 2.144375 2.51625 2.28875 3.8125 2.4375 C6.42667123 2.73748686 8.47439892 3.15813297 11 4 C11 4.66 11 5.32 11 6 C12.60875 6.2165625 12.60875 6.2165625 14.25 6.4375 C16.91662949 6.83749442 19.41399729 7.27591924 22 8 C22 8.66 22 9.32 22 10 C22.9075 10.144375 23.815 10.28875 24.75 10.4375 C27.21476956 10.86409473 29.58847107 11.35074221 32 12 C32 12.66 32 13.32 32 14 C33.60875 14.2165625 33.60875 14.2165625 35.25 14.4375 C37.91662949 14.83749442 40.41399729 15.27591924 43 16 C43 16.66 43 17.32 43 18 C46.63 18.66 50.26 19.32 54 20 C54 20.66 54 21.32 54 22 C56.97 22.66 59.94 23.32 63 24 C63 24.66 63 25.32 63 26 C64.60875 26.2165625 64.60875 26.2165625 66.25 26.4375 C68.91662949 26.83749442 71.41399729 27.27591924 74 28 C74 28.66 74 29.32 74 30 C76.97 30.66 79.94 31.32 83 32 C83 32.66 83 33.32 83 34 C84.258125 34.144375 85.51625 34.28875 86.8125 34.4375 C89.42667123 34.73748686 91.47439892 35.15813297 94 36 C94 36.66 94 37.32 94 38 C97.3 38.66 100.6 39.32 104 40 C104 40.66 104 41.32 104 42 C105.258125 42.144375 106.51625 42.28875 107.8125 42.4375 C110.42667123 42.73748686 112.47439892 43.15813297 115 44 C115 44.66 115 45.32 115 46 C116.27875 46.144375 117.5575 46.28875 118.875 46.4375 C121.25692894 46.70642746 122.84452691 46.92226346 125 48 C125 48.66 125 49.32 125 50 C126.0725 50.144375 127.145 50.28875 128.25 50.4375 C130.91662949 50.83749442 133.41399729 51.27591924 136 52 C136 52.66 136 53.32 136 54 C137.0725 54.144375 138.145 54.28875 139.25 54.4375 C141.91662949 54.83749442 144.41399729 55.27591924 147 56 C147 56.66 147 57.32 147 58 C147.9075 58.144375 148.815 58.28875 149.75 58.4375 C152.21476956 58.86409473 154.58847107 59.35074221 157 60 C157 60.66 157 61.32 157 62 C157.67546875 62.13277344 158.3509375 62.26554687 159.046875 62.40234375 C159.93890625 62.57894531 160.8309375 62.75554687 161.75 62.9375 C162.63171875 63.11152344 163.5134375 63.28554687 164.421875 63.46484375 C166.63235053 63.92368488 168.81512068 64.43336074 171 65 C171 65.66 171 66.32 171 67 C171.9075 67.144375 172.815 67.28875 173.75 67.4375 C176.21476956 67.86409473 178.58847107 68.35074221 181 69 C181 69.66 181 70.32 181 71 C184.63 71.66 188.26 72.32 192 73 C192 73.66 192 74.32 192 75 C194.97 75.66 197.94 76.32 201 77 C201 77.66 201 78.32 201 79 C202.0725 79.144375 203.145 79.28875 204.25 79.4375 C206.91662949 79.83749442 209.41399729 80.27591924 212 81 C212 81.66 212 82.32 212 83 C213.0725 83.144375 214.145 83.28875 215.25 83.4375 C217.91662949 83.83749442 220.41399729 84.27591924 223 85 C223 85.66 223 86.32 223 87 C225.97 87.66 228.94 88.32 232 89 C232 89.66 232 90.32 232 91 C232.9075 91.144375 233.815 91.28875 234.75 91.4375 C237.21476956 91.86409473 239.58847107 92.35074221 242 93 C242 93.66 242 94.32 242 95 C243.0725 95.144375 244.145 95.28875 245.25 95.4375 C247.91662949 95.83749442 250.41399729 96.27591924 253 97 C253 97.66 253 98.32 253 99 C256.63 99.66 260.26 100.32 264 101 C264 101.66 264 102.32 264 103 C266.97 103.66 269.94 104.32 273 105 C273 105.66 273 106.32 273 107 C274.0725 107.144375 275.145 107.28875 276.25 107.4375 C278.91662949 107.83749442 281.41399729 108.27591924 284 109 C284 109.66 284 110.32 284 111 C284.9075 111.144375 285.815 111.28875 286.75 111.4375 C289.21476956 111.86409473 291.58847107 112.35074221 294 113 C294 113.66 294 114.32 294 115 C297.3 115.66 300.6 116.32 304 117 C304 117.66 304 118.32 304 119 C304.763125 119.144375 305.52625 119.28875 306.3125 119.4375 C309 120 309 120 312 121 C312 122.98 312 124.96 312 127 C308.91190305 128.76462683 307.76687864 129 304 129 C304 129.66 304 130.32 304 131 C299.15758367 132.33583899 295.06562383 133.25328119 290 133 C290 133.66 290 134.32 290 135 C288.58461283 135.33872513 287.16762037 135.67074624 285.75 136 C284.96109375 136.185625 284.1721875 136.37125 283.359375 136.5625 C281 137 281 137 277 137 C277 137.66 277 138.32 277 139 C271.92523206 140.26305335 267.27203646 141.27036084 262 141 C262 141.66 262 142.32 262 143 C260.58461283 143.33872513 259.16762037 143.67074624 257.75 144 C256.96109375 144.185625 256.1721875 144.37125 255.359375 144.5625 C253 145 253 145 249 145 C249 145.66 249 146.32 249 147 C247.58461283 147.33872513 246.16762037 147.67074624 244.75 148 C243.96109375 148.185625 243.1721875 148.37125 242.359375 148.5625 C240 149 240 149 236 149 C236 149.66 236 150.32 236 151 C230.92523206 152.26305335 226.27203646 153.27036084 221 153 C221 153.66 221 154.32 221 155 C212.57142857 157.28571429 212.57142857 157.28571429 208 157 C208 157.66 208 158.32 208 159 C206.58461283 159.33872513 205.16762037 159.67074624 203.75 160 C202.96109375 160.185625 202.1721875 160.37125 201.359375 160.5625 C199 161 199 161 195 161 C195 161.66 195 162.32 195 163 C193.43883181 163.33951619 191.87598662 163.67132544 190.3125 164 C189.44238281 164.185625 188.57226562 164.37125 187.67578125 164.5625 C185.06287036 164.98972047 182.64186962 165.07616201 180 165 C180 165.66 180 166.32 180 167 C178.58461283 167.33872513 177.16762037 167.67074624 175.75 168 C174.96109375 168.185625 174.1721875 168.37125 173.359375 168.5625 C171 169 171 169 167 169 C167 169.66 167 170.32 167 171 C166.01 171 165.02 171 164 171 C164.33 171.66 164.66 172.32 165 173 C165.13415472 175.6723621 165.04318541 178.32250488 165 181 C165.66 181 166.32 181 167 181 C168.27041977 190.04039783 169.34915606 198.84435229 169 208 C169.66 208 170.32 208 171 208 C171.33748465 213.53099847 171.65833512 219.06263027 171.96435547 224.59545898 C172.07055564 226.47429812 172.18115719 228.35289419 172.29638672 230.23120117 C172.46201874 232.94396556 172.6113689 235.65723376 172.7578125 238.37109375 C172.81188263 239.19959335 172.86595276 240.02809296 172.92166138 240.88169861 C173.20682027 246.55861833 172.49899169 251.52101357 171 257 C170.34 257 169.68 257 169 257 C169 260.96 169 264.92 169 269 C169.66 269 170.32 269 171 269 C173.69858705 289.43215909 173.88783353 309.57889149 171 330 C170.34 330 169.68 330 169 330 C169.04125 330.94875 169.0825 331.8975 169.125 332.875 C169.14484508 337.70727658 168.05774196 342.30627004 167 347 C166.34 347 165.68 347 165 347 C164.93941406 347.78503906 164.87882813 348.57007813 164.81640625 349.37890625 C164.37179786 354.95361148 163.87875357 360.47640616 163 366 C162.34 366 161.68 366 161 366 C161 372.27 161 378.54 161 385 C161.66 385 162.32 385 163 385 C163.66 389.29 164.32 393.58 165 398 C165.66 398 166.32 398 167 398 C167.66 400.97 168.32 403.94 169 407 C169.66 407 170.32 407 171 407 C172.4606285 409.64738916 173 410.89448334 173 414 C173.66 414 174.32 414 175 414 C175.66 416.31 176.32 418.62 177 421 C177.66 421 178.32 421 179 421 C179.66 422.98 180.32 424.96 181 427 C181.66 427 182.32 427 183 427 C183.268125 427.969375 183.53625 428.93875 183.8125 429.9375 C184.204375 430.948125 184.59625 431.95875 185 433 C185.99 433.33 186.98 433.66 188 434 C188.33 434.99 188.66 435.98 189 437 C189.66 437.33 190.32 437.66 191 438 C191.66666667 439.33333333 192.33333333 440.66666667 193 442 C193.66 442.33 194.32 442.66 195 443 C196.57548683 445.62581138 197 446.87099787 197 450 C197.66 450 198.32 450 199 450 C200.76462683 453.08809695 201 454.23312136 201 458 C201.66 458 202.32 458 203 458 C203.77916092 463.02125926 204.13016601 466.97703996 203 472 C202.34 472 201.68 472 201 472 C200.9175 472.5775 200.835 473.155 200.75 473.75 C199.774018 476.67794601 198.36488777 478.05244537 196 480 C195.01 480 194.02 480 193 480 C192.67 480.99 192.34 481.98 192 483 C190.35 483.33 188.7 483.66 187 484 C187 484.66 187 485.32 187 486 C183.7 486.66 180.4 487.32 177 488 C177 488.66 177 489.32 177 490 C173.7 490.66 170.4 491.32 167 492 C167 492.66 167 493.32 167 494 C165.576875 494.4021875 165.576875 494.4021875 164.125 494.8125 C160.74732727 495.74986588 160.74732727 495.74986588 159 499 C158.34 499 157.68 499 157 499 C157 502.96 157 506.92 157 511 C157.66 511 158.32 511 159 511 C159.28875 512.134375 159.5775 513.26875 159.875 514.4375 C160.24625 515.613125 160.6175 516.78875 161 518 C161.66 518.33 162.32 518.66 163 519 C164.3749149 521.90259811 165 523.76138705 165 527 C165.66 527 166.32 527 167 527 C169.11029303 533.95155353 169.34018383 538.97944851 167 546 C163.9375 547.1875 163.9375 547.1875 161 548 C161 548.66 161 549.32 161 550 C157.38026598 551.31626692 154.90432869 552 151 552 C151.33 552.598125 151.66 553.19625 152 553.8125 C153 556 153 556 153 559 C153.66 559 154.32 559 155 559 C157.17987447 565.40338126 158.1386981 571.51273707 156 578.0625 C155.67 578.701875 155.34 579.34125 155 580 C154.34 580 153.68 580 153 580 C152.34 581.32 151.68 582.64 151 584 C150.34 584 149.68 584 149 584 C148.67 584.99 148.34 585.98 148 587 C147.01 587.33 146.02 587.66 145 588 C143.41302369 589.59913982 143.41302369 589.59913982 141.9375 591.5 C139.19897084 594.90051458 139.19897084 594.90051458 137 596 C136.30772968 598.80980673 136.30772968 598.80980673 135.875 602.0625 C135.70742188 603.16722656 135.53984375 604.27195312 135.3671875 605.41015625 C135.24601563 606.26480469 135.12484375 607.11945312 135 608 C134.34 608 133.68 608 133 608 C133 608.99 133 609.98 133 611 C133.66 611 134.32 611 135 611 C136.00232104 619.16175708 136.11027172 627.28653058 136.125 635.5 C136.13176758 637.09424805 136.13176758 637.09424805 136.13867188 638.72070312 C136.13673828 639.73068359 136.13480469 640.74066406 136.1328125 641.78125 C136.13168457 642.68939453 136.13055664 643.59753906 136.12939453 644.53320312 C136.0088668 646.83096197 135.64662008 648.79879481 135 651 C134.34 651 133.68 651 133 651 C132.814375 652.19625 132.62875 653.3925 132.4375 654.625 C131.35827342 659.04357259 129.31736496 660.98971842 125.75390625 663.67578125 C123.95407244 664.96119092 123.95407244 664.96119092 122.4453125 666.625 C120.4721879 668.50213476 118.64632733 668.6423882 116 669 C116 669.66 116 670.32 116 671 C112.12315913 672.19287411 109.08378077 673 105 673 C105 673.66 105 674.32 105 675 C98.59077733 675.95456508 92.34989827 676.15499374 85.875 676.125 C84.86687256 676.12306641 83.85874512 676.12113281 82.82006836 676.11914062 C75.17611724 676.07509385 67.61141405 675.7387161 60 675 C60 674.34 60 673.68 60 673 C58.91460938 672.93941406 57.82921875 672.87882813 56.7109375 672.81640625 C55.26561514 672.73193936 53.82030318 672.64729449 52.375 672.5625 C51.30572266 672.50352539 51.30572266 672.50352539 50.21484375 672.44335938 C46.08196318 672.19690319 42.07730976 671.76529947 38 671 C38 670.34 38 669.68 38 669 C37.05898438 668.93941406 36.11796875 668.87882813 35.1484375 668.81640625 C33.90320313 668.73261719 32.65796875 668.64882813 31.375 668.5625 C30.14523437 668.48128906 28.91546875 668.40007813 27.6484375 668.31640625 C24.38467612 668.03336056 21.22056141 667.58961047 18 667 C18 666.34 18 665.68 18 665 C16.8759375 665.020625 15.751875 665.04125 14.59375 665.0625 C9.84660272 665.0625 5.20821116 664.56743913 0.5 664 C-0.32242187 663.90460937 -1.14484375 663.80921875 -1.9921875 663.7109375 C-3.99526826 663.47802113 -5.99770659 663.23959066 -8 663 C-8 662.34 -8 661.68 -8 661 C-12.62 661 -17.24 661 -22 661 C-22 661.66 -22 662.32 -22 663 C-27.28 663.66 -32.56 664.32 -38 665 C-38 665.66 -38 666.32 -38 667 C-40.97 667.66 -43.94 668.32 -47 669 C-47 669.66 -47 670.32 -47 671 C-47.969375 671.268125 -48.93875 671.53625 -49.9375 671.8125 C-50.948125 672.204375 -51.95875 672.59625 -53 673 C-53.33 673.99 -53.66 674.98 -54 676 C-54.99 676.33 -55.98 676.66 -57 677 C-58.58558381 678.63502936 -58.58558381 678.63502936 -60.0625 680.5625 C-61.59765625 682.50390625 -61.59765625 682.50390625 -63 684 C-63.66 684 -64.32 684 -65 684 C-65.103125 684.639375 -65.20625 685.27875 -65.3125 685.9375 C-65.539375 686.618125 -65.76625 687.29875 -66 688 C-66.99 688.33 -67.98 688.66 -69 689 C-69.70381157 690.98723268 -70.3711811 692.98777953 -71 695 C-71.66 695.33 -72.32 695.66 -73 696 C-74.13350534 698.01669827 -74.13350534 698.01669827 -75 700 C-75.66 700 -76.32 700 -77 700 C-77.144375 700.78375 -77.28875 701.5675 -77.4375 702.375 C-78 705 -78 705 -79 707 C-79.66 707 -80.32 707 -81 707 C-81.66 709.64 -82.32 712.28 -83 715 C-83.66 715 -84.32 715 -85 715 C-85.66 717.64 -86.32 720.28 -87 723 C-87.66 723 -88.32 723 -89 723 C-89.144375 723.9075 -89.28875 724.815 -89.4375 725.75 C-89.86409473 728.21476956 -90.35074221 730.58847107 -91 733 C-91.66 733 -92.32 733 -93 733 C-93.66 736.63 -94.32 740.26 -95 744 C-95.66 744 -96.32 744 -97 744 C-97.06058594 744.64066406 -97.12117188 745.28132812 -97.18359375 745.94140625 C-97.67209412 750.98423313 -98.23779286 755.9912102 -99 761 C-99.66 761 -100.32 761 -101 761 C-100.98839844 761.65846924 -100.97679687 762.31693848 -100.96484375 762.99536133 C-100.89625254 769.95430693 -101.3101708 776.76590295 -102 783.6875 C-102.09539062 784.68716797 -102.19078125 785.68683594 -102.2890625 786.71679688 C-102.52142804 789.14501674 -102.75845635 791.57267899 -103 794 C-103.66 794 -104.32 794 -105 794 C-104.938125 795.3921875 -104.938125 795.3921875 -104.875 796.8125 C-104.8537627 801.9731635 -105.97956982 806.96162598 -107 812 C-107.66 812 -108.32 812 -109 812 C-109.144375 813.2375 -109.28875 814.475 -109.4375 815.75 C-109.78688502 818.56504499 -110.20379366 821.2701497 -111 824 C-111.66 824 -112.32 824 -113 824 C-113.144375 824.9075 -113.28875 825.815 -113.4375 826.75 C-113.86409473 829.21476956 -114.35074221 831.58847107 -115 834 C-115.66 834 -116.32 834 -117 834 C-117.66 837.3 -118.32 840.6 -119 844 C-119.66 844 -120.32 844 -121 844 C-121.66 846.64 -122.32 849.28 -123 852 C-123.66 852 -124.32 852 -125 852 C-125.66 854.64 -126.32 857.28 -127 860 C-127.66 860 -128.32 860 -129 860 C-129.66 861.98 -130.32 863.96 -131 866 C-131.66 866 -132.32 866 -133 866 C-133.2165625 866.8971875 -133.2165625 866.8971875 -133.4375 867.8125 C-133.8872439 869.56150404 -134.42892341 871.28677023 -135 873 C-135.66 873 -136.32 873 -137 873 C-137.2165625 873.8971875 -137.2165625 873.8971875 -137.4375 874.8125 C-138.38365209 878.49198034 -139.28928433 880.40223081 -142 883 C-142.33 883.66 -142.66 884.32 -143 885 C-143.66 885 -144.32 885 -145 885 C-145.99 887.475 -145.99 887.475 -147 890 C-147.66 890 -148.32 890 -149 890 C-149.2165625 890.8971875 -149.2165625 890.8971875 -149.4375 891.8125 C-150.72413793 896.81609195 -150.72413793 896.81609195 -154 899 C-154.33 899.99 -154.66 900.98 -155 902 C-155.66 902.33 -156.32 902.66 -157 903 C-158.13350534 905.01669827 -158.13350534 905.01669827 -159 907 C-159.66 907 -160.32 907 -161 907 C-161.66 908.98 -162.32 910.96 -163 913 C-163.66 913 -164.32 913 -165 913 C-165.66 914.98 -166.32 916.96 -167 919 C-167.66 919 -168.32 919 -169 919 C-169.66 920.98 -170.32 922.96 -171 925 C-171.66 925 -172.32 925 -173 925 C-174.485 929.455 -174.485 929.455 -176 934 C-176.66 934 -177.32 934 -178 934 C-178 940.27 -178 946.54 -178 953 C-177.34 953 -176.68 953 -176 953 C-175.5875 954.2375 -175.175 955.475 -174.75 956.75 C-173.04792203 961.27289264 -171.02543938 963.8747559 -166.75 966.25 C-166.1725 966.4975 -165.595 966.745 -165 967 C-165 967.66 -165 968.32 -165 969 C-164.401875 969.144375 -163.80375 969.28875 -163.1875 969.4375 C-161.43849596 969.8872439 -159.71322977 970.42892341 -158 971 C-158 971.66 -158 972.32 -158 973 C-157.236875 973.144375 -156.47375 973.28875 -155.6875 973.4375 C-153 974 -153 974 -150 975 C-150 975.66 -150 976.32 -150 977 C-148.7625 977.144375 -147.525 977.28875 -146.25 977.4375 C-143.43495501 977.78688502 -140.7298503 978.20379366 -138 979 C-138 979.66 -138 980.32 -138 981 C-137.43152344 981.06058594 -136.86304688 981.12117187 -136.27734375 981.18359375 C-131.50218963 981.70176573 -126.7507695 982.29243859 -122 983 C-122 983.66 -122 984.32 -122 985 C-120.9378125 985.06058594 -119.875625 985.12117187 -118.78125 985.18359375 C-104.84328379 986.00202111 -104.84328379 986.00202111 -98 987 C-98 987.66 -98 988.32 -98 989 C-97.29359375 988.98839844 -96.5871875 988.97679687 -95.859375 988.96484375 C-90.09319045 988.9141361 -84.38097848 989.00666698 -78.6267395 989.35488892 C-66.0068461 990.10712398 -53.40060858 990.15257455 -40.76171875 990.13037109 C-37.1093334 990.12497686 -33.45706931 990.13036933 -29.8046875 990.13671875 C-14.24990966 990.15990171 -14.24990966 990.15990171 1.26855469 989.22045898 C5.84194743 988.8513337 10.41547602 988.91579446 15 989 C15 988.34 15 987.68 15 987 C17.68693722 986.66148822 20.37440289 986.329064 23.0625 986 C23.81466797 985.90460937 24.56683594 985.80921875 25.34179688 985.7109375 C29.93421317 985.15428098 34.3742135 984.90170972 39 985 C39 984.34 39 983.68 39 983 C40.89492006 982.66151348 42.79098466 982.32943089 44.6875 982 C45.74324219 981.814375 46.79898437 981.62875 47.88671875 981.4375 C50.64904062 981.04931926 53.21742043 980.91740024 56 981 C56 980.34 56 979.68 56 979 C57.7491497 978.66223316 59.49936145 978.32996329 61.25 978 C62.22453125 977.814375 63.1990625 977.62875 64.203125 977.4375 C67 977 67 977 71 977 C71 976.34 71 975.68 71 975 C72.41538717 974.66127487 73.83237963 974.32925376 75.25 974 C76.03890625 973.814375 76.8278125 973.62875 77.640625 973.4375 C80 973 80 973 84 973 C84 972.34 84 971.68 84 971 C87.87684087 969.80712589 90.91621923 969 95 969 C95 968.34 95 967.68 95 967 C98.61973402 965.68373308 101.09567131 965 105 965 C105 964.34 105 963.68 105 963 C108.61973402 961.68373308 111.09567131 961 115 961 C115 960.34 115 959.68 115 959 C117.90600261 957.74335022 119.79604584 957 123 957 C123 956.34 123 955.68 123 955 C125.90600261 953.74335022 127.79604584 953 131 953 C131 952.34 131 951.68 131 951 C133.90600261 949.74335022 135.79604584 949 139 949 C139 948.34 139 947.68 139 947 C140.98 946.34 142.96 945.68 145 945 C145 944.34 145 943.68 145 943 C147.64738916 941.5393715 148.89448334 941 152 941 C152.33 940.01 152.66 939.02 153 938 C154.98 937.67 156.96 937.34 159 937 C159.33 936.01 159.66 935.02 160 934 C160.99 933.67 161.98 933.34 163 933 C163.33 932.34 163.66 931.68 164 931 C165.33333333 930.33333333 166.66666667 929.66666667 168 929 C168.33 928.34 168.66 927.68 169 927 C171.62581138 925.42451317 172.87099787 925 176 925 C176.33 924.01 176.66 923.02 177 922 C179.06710205 919.53916422 181.16089805 918.41955098 184 917 C184.7425 916.2265625 184.7425 916.2265625 185.5 915.4375 C187 914 187 914 189.0625 913.5625 C191.21173571 913.17549168 191.21173571 913.17549168 192.25 910.9375 C192.4975 910.298125 192.745 909.65875 193 909 C193.66 909 194.32 909 195 909 C195.33 908.01 195.66 907.02 196 906 C196.99 905.67 197.98 905.34 199 905 C200.45074215 903.5351307 200.45074215 903.5351307 201.8125 901.75 C204.58096903 898.38682281 207.65007663 895.79160281 211 893 C212.62270112 891.15707515 214.17729294 889.27916562 215.703125 887.35546875 C216.13109375 886.90816406 216.5590625 886.46085938 217 886 C217.66 886 218.32 886 219 886 C219.09410156 885.401875 219.18820312 884.80375 219.28515625 884.1875 C220.1612286 881.50662287 221.21927994 880.69709976 223.4375 879 C226.17752364 876.89492965 227.63171678 875.19036892 229 872 C229.66 872 230.32 872 231 872 C232.20628008 869.66785852 233.1654738 867.50357861 234 865 C234.9793879 863.97980427 235.97895449 862.97850195 237 862 C237.33 861.34 237.66 860.68 238 860 C238.66 860 239.32 860 240 860 C240.66 858.68 241.32 857.36 242 856 C242.66 856 243.32 856 244 856 C244.144375 855.401875 244.28875 854.80375 244.4375 854.1875 C244.8872439 852.43849596 245.42892341 850.71322977 246 849 C246.66 848.67 247.32 848.34 248 848 C249.13350534 845.98330173 249.13350534 845.98330173 250 844 C250.66 844 251.32 844 252 844 C252.144375 843.401875 252.28875 842.80375 252.4375 842.1875 C252.8872439 840.43849596 253.42892341 838.71322977 254 837 C254.66 837 255.32 837 256 837 C256.144375 836.401875 256.28875 835.80375 256.4375 835.1875 C256.8872439 833.43849596 257.42892341 831.71322977 258 830 C258.66 830 259.32 830 260 830 C260.66 828.02 261.32 826.04 262 824 C262.66 824 263.32 824 264 824 C264.144375 823.05125 264.28875 822.1025 264.4375 821.125 C265 818 265 818 266 816 C266.66 816 267.32 816 268 816 C268.144375 815.05125 268.28875 814.1025 268.4375 813.125 C269 810 269 810 270 808 C270.66 808 271.32 808 272 808 C272.144375 807.05125 272.28875 806.1025 272.4375 805.125 C273 802 273 802 274 800 C274.66 800 275.32 800 276 800 C276.144375 798.906875 276.28875 797.81375 276.4375 796.6875 C277 793 277 793 278 790 C278.66 790 279.32 790 280 790 C280.144375 788.72125 280.28875 787.4425 280.4375 786.125 C280.70642746 783.74307106 280.92226346 782.15547309 282 780 C282.66 780 283.32 780 284 780 C284.144375 778.7625 284.28875 777.525 284.4375 776.25 C284.78688502 773.43495501 285.20379366 770.7298503 286 768 C286.66 768 287.32 768 288 768 C288.144375 766.80375 288.28875 765.6075 288.4375 764.375 C288.87039343 760.8994842 289.39616256 757.45049966 290 754 C290.66 754 291.32 754 292 754 C292.06058594 753.40832031 292.12117187 752.81664062 292.18359375 752.20703125 C292.62012371 748.09021792 293.08671346 744.04455467 294 740 C294.66 740 295.32 740 296 740 C296.06058594 739.21496094 296.12117187 738.42992187 296.18359375 737.62109375 C296.62820214 732.04638852 297.12124643 726.52359384 298 721 C298.66 721 299.32 721 300 721 C300.06058594 720.11699219 300.12117187 719.23398437 300.18359375 718.32421875 C300.70378061 710.8735423 301.28687258 703.43473264 302 696 C302.66 696 303.32 696 304 696 C303.98259766 695.08734375 303.98259766 695.08734375 303.96484375 694.15625 C303.90765544 688.60081439 304.09835496 683.11653662 304.49560547 677.57446289 C305.03528196 669.48398859 305.14658695 661.41659132 305.1328125 653.30859375 C305.13348956 651.8652393 305.13446289 650.42188496 305.13571167 648.97853088 C305.1371693 645.98282769 305.13509714 642.98715471 305.13037109 639.99145508 C305.1246698 636.19765286 305.12796785 632.40392138 305.13394356 628.61012173 C305.13759765 625.63885487 305.1363887 622.66760415 305.13381577 619.69633675 C305.13316009 618.29923557 305.13392585 616.90213281 305.13629532 615.50503349 C305.14743656 607.09713608 304.87048353 598.79233183 304.22018433 590.41175842 C303.8885525 585.27311984 303.91374557 580.14651415 304 575 C303.34 575 302.68 575 302 575 C301.66148822 572.31306278 301.329064 569.62559711 301 566.9375 C300.90460937 566.18533203 300.80921875 565.43316406 300.7109375 564.65820312 C300.15428098 560.06578683 299.90170972 555.6257865 300 551 C299.34 551 298.68 551 298 551 C297.66089006 548.95928485 297.32897296 546.91737379 297 544.875 C296.814375 543.73804688 296.62875 542.60109375 296.4375 541.4296875 C296.03043951 538.23862398 295.92190098 535.21182209 296 532 C295.34 532 294.68 532 294 532 C293.66179834 530.4176994 293.32964061 528.83410625 293 527.25 C292.814375 526.36828125 292.62875 525.4865625 292.4375 524.578125 C292 522 292 522 292 518 C291.34 518 290.68 518 290 518 C289.66179834 516.4176994 289.32964061 514.83410625 289 513.25 C288.814375 512.36828125 288.62875 511.4865625 288.4375 510.578125 C288 508 288 508 288 504 C287.34 504 286.68 504 286 504 C284.86235649 499.73383684 284 496.43513689 284 492 C283.34 492 282.68 492 282 492 C280.68373308 488.38026598 280 485.90432869 280 482 C279.34 482 278.68 482 278 482 C277.34 478.7 276.68 475.4 276 472 C275.34 472 274.68 472 274 472 C272.50178941 468.62902617 272 466.79557881 272 463 C271.34 463 270.68 463 270 463 C268.74335022 460.09399739 268 458.20395416 268 455 C267.34 455 266.68 455 266 455 C264.74335022 452.09399739 264 450.20395416 264 447 C263.34 447 262.68 447 262 447 C261.71125 446.195625 261.4225 445.39125 261.125 444.5625 C260.26737432 441.8673532 260.26737432 441.8673532 258 441 C257.3671875 439.15234375 257.3671875 439.15234375 256.875 436.9375 C256.70742188 436.20402344 256.53984375 435.47054688 256.3671875 434.71484375 C256.24601563 434.14894531 256.12484375 433.58304687 256 433 C255.34 433 254.68 433 254 433 C252.5393715 430.35261084 252 429.10551666 252 426 C251.01 425.67 250.02 425.34 249 425 C248.67 423.02 248.34 421.04 248 419 C247.01 418.67 246.02 418.34 245 418 C244.67 417.01 244.34 416.02 244 415 C243.34 414.67 242.68 414.34 242 414 C240.42451317 411.37418862 240 410.12900213 240 407 C239.01 406.67 238.02 406.34 237 406 C236.67 405.01 236.34 404.02 236 403 C235.01 402.34 234.02 401.68 233 401 C231.8125 397.875 231.8125 397.875 231 395 C230.34 395 229.68 395 229 395 C228.71125 394.360625 228.4225 393.72125 228.125 393.0625 C227.17176549 390.84793921 227.17176549 390.84793921 225 390 C224.33333333 388.66666667 223.66666667 387.33333333 223 386 C222.34 385.67 221.68 385.34 221 385 C220.71125 384.030625 220.4225 383.06125 220.125 382.0625 C219.3110709 378.89943043 219.3110709 378.89943043 216.875 377.625 C215.946875 377.315625 215.946875 377.315625 215 377 C215 376.34 215 375.68 215 375 C214.34 375 213.68 375 213 375 C212.73960937 374.401875 212.47921875 373.80375 212.2109375 373.1875 C210.91891371 370.85352153 209.69131187 369.66026805 207.625 368 C200.31915149 361.95745446 200.31915149 361.95745446 199 358 C197.57274123 356.80508568 196.14154302 355.61430034 194.68359375 354.45703125 C192.34660814 352.43453558 190.44453224 350.13413124 188.4921875 347.74609375 C186.98107666 345.88921736 186.98107666 345.88921736 184.84375 344.13671875 C182.44598377 341.35795153 182.52361561 340.01562138 182.625 336.375 C182.65851562 335.16328125 182.69203125 333.9515625 182.7265625 332.703125 C183.26810898 322.4553993 184.13278691 312.22435006 185 302 C185.66 302 186.32 302 187 302 C187 297.71 187 293.42 187 289 C186.34 289 185.68 289 185 289 C184.67 285.04 184.34 281.08 184 277 C185.65 277.33 187.3 277.66 189 278 C189 278.66 189 279.32 189 280 C189.94875 280.144375 190.8975 280.28875 191.875 280.4375 C195 281 195 281 197 282 C197 282.66 197 283.32 197 284 C198.98 284.66 200.96 285.32 203 286 C203 286.66 203 287.32 203 288 C204.98 288.66 206.96 289.32 209 290 C209 290.66 209 291.32 209 292 C210.98 292.66 212.96 293.32 215 294 C215 294.66 215 295.32 215 296 C216.98 296.66 218.96 297.32 221 298 C221 298.66 221 299.32 221 300 C221.969375 300.28875 222.93875 300.5775 223.9375 300.875 C227 302 227 302 228 304 C228.66 304.33 229.32 304.66 230 305 C232 306 232 306 233 308 C233.928125 308.4640625 233.928125 308.4640625 234.875 308.9375 C237.07209907 310.03604954 238.31771193 311.24124429 240 313 C240.66 313.33 241.32 313.66 242 314 C242 314.66 242 315.32 242 316 C243.32 316.66 244.64 317.32 246 318 C246 318.66 246 319.32 246 320 C247.3303125 320.309375 247.3303125 320.309375 248.6875 320.625 C252.76003769 322.31548734 254.29411434 324.58203916 257 328 C258.31647119 328.69937532 259.65022151 329.36729133 261 330 C263.75 332.5 263.75 332.5 266 335 C266 335.66 266 336.32 266 337 C267.32 337.66 268.64 338.32 270 339 C270 339.66 270 340.32 270 341 C271.32 341.66 272.64 342.32 274 343 C274 343.66 274 344.32 274 345 C275.32 345.66 276.64 346.32 278 347 C278 347.66 278 348.32 278 349 C279.32 349.66 280.64 350.32 282 351 C282 351.66 282 352.32 282 353 C283.32 353.66 284.64 354.32 286 355 C286 355.66 286 356.32 286 357 C286.99 357.33 287.98 357.66 289 358 C289.33 358.99 289.66 359.98 290 361 C291.72458718 362.58509851 293.54950073 363.97553847 295.40625 365.40234375 C297.23588806 367.23646622 297.6072766 368.47457033 298 371 C298.66 371 299.32 371 300 371 C303.18931055 374.42267473 304.87604672 376.50418688 306 381 C307.9837767 382.28436734 307.9837767 382.28436734 310 383 C310 383.99 310 384.98 310 386 C310.99 386.33 311.98 386.66 313 387 C313.6875 389.0625 313.6875 389.0625 314 391 C314.66 391 315.32 391 316 391 C316.268125 391.969375 316.53625 392.93875 316.8125 393.9375 C317.204375 394.948125 317.59625 395.95875 318 397 C318.99 397.33 319.98 397.66 321 398 C321.33 398.99 321.66 399.98 322 401 C322.66 401.33 323.32 401.66 324 402 C325.57548683 404.62581138 326 405.87099787 326 409 C326.99 409.33 327.98 409.66 329 410 C329.33 410.99 329.66 411.98 330 413 C330.66 413.33 331.32 413.66 332 414 C332.73075648 416.3140622 333.40138258 418.64828869 334 421 C334.66 421 335.32 421 336 421 C336.28875 421.804375 336.5775 422.60875 336.875 423.4375 C337.73262568 426.1326468 337.73262568 426.1326468 340 427 C340.6328125 428.84765625 340.6328125 428.84765625 341.125 431.0625 C341.29257812 431.79597656 341.46015625 432.52945312 341.6328125 433.28515625 C341.75398437 433.85105469 341.87515625 434.41695313 342 435 C342.66 435 343.32 435 344 435 C345.4606285 437.64738916 346 438.89448334 346 442 C346.66 442 347.32 442 348 442 C349.25664978 444.90600261 350 446.79604584 350 450 C350.66 450 351.32 450 352 450 C353.25664978 452.90600261 354 454.79604584 354 458 C354.66 458 355.32 458 356 458 C356.66 460.97 357.32 463.94 358 467 C358.66 467 359.32 467 360 467 C360.66 469.97 361.32 472.94 362 476 C362.66 476 363.32 476 364 476 C365.19287411 479.87684087 366 482.91621923 366 487 C366.66 487 367.32 487 368 487 C368.50636607 488.74816858 369.00484619 490.49862263 369.5 492.25 C369.7784375 493.22453125 370.056875 494.1990625 370.34375 495.203125 C371 498 371 498 371 502 C371.66 502 372.32 502 373 502 C373.33872513 503.41538717 373.67074624 504.83237963 374 506.25 C374.185625 507.03890625 374.37125 507.8278125 374.5625 508.640625 C375 511 375 511 375 515 C375.66 515 376.32 515 377 515 C378.26305335 520.07476794 379.27036084 524.72796354 379 530 C379.66 530 380.32 530 381 530 C382.2982126 535.76081841 383.25706972 541.08739655 383 547 C383.66 547 384.32 547 385 547 C386.18396883 555.02350304 387.28545428 562.86455314 387 571 C387.66 571 388.32 571 389 571 C390.86643354 588.71870886 391.24763976 606.20041603 391 624 C391.66 624 392.32 624 393 624 C393 629.28 393 634.56 393 640 C392.34 640 391.68 640 391 640 C391.01571045 640.87060059 391.01571045 640.87060059 391.03173828 641.75878906 C391.29084941 658.5977323 390.40685851 675.22246399 389 692 C388.34 692 387.68 692 387 692 C387.061875 693.7634375 387.061875 693.7634375 387.125 695.5625 C387.14703168 702.43638525 386.00111843 709.21563491 385 716 C384.34 716 383.68 716 383 716 C383.061875 717.36125 383.061875 717.36125 383.125 718.75 C383.14765822 724.24461844 381.99038182 729.61479886 381 735 C380.34 735 379.68 735 379 735 C378.93941406 735.59167969 378.87882813 736.18335938 378.81640625 736.79296875 C378.37987629 740.90978208 377.91328654 744.95544533 377 749 C376.34 749 375.68 749 375 749 C374.855625 750.2375 374.71125 751.475 374.5625 752.75 C374.21311498 755.56504499 373.79620634 758.2701497 373 761 C372.34 761 371.68 761 371 761 C370.814375 762.7634375 370.814375 762.7634375 370.625 764.5625 C370.13564065 768.54120426 369.1944795 772.17766559 368 776 C367.34 776 366.68 776 366 776 C365.855625 777.27875 365.71125 778.5575 365.5625 779.875 C365.29357254 782.25692894 365.07773654 783.84452691 364 786 C363.34 786 362.68 786 362 786 C361.34 789.3 360.68 792.6 360 796 C359.34 796 358.68 796 358 796 C357.34 798.64 356.68 801.28 356 804 C355.34 804 354.68 804 354 804 C353.34 806.64 352.68 809.28 352 812 C351.34 812 350.68 812 350 812 C349.34 814.64 348.68 817.28 348 820 C347.34 820 346.68 820 346 820 C345.34 821.98 344.68 823.96 344 826 C343.34 826 342.68 826 342 826 C341.67 827.98 341.34 829.96 341 832 C340.01 832.33 339.02 832.66 338 833 C337.855625 833.78375 337.71125 834.5675 337.5625 835.375 C337 838 337 838 336 840 C335.34 840 334.68 840 334 840 C333.34 841.98 332.68 843.96 332 846 C331.34 846 330.68 846 330 846 C329.34 847.98 328.68 849.96 328 852 C327.34 852 326.68 852 326 852 C325.34 853.98 324.68 855.96 324 858 C323.34 858 322.68 858 322 858 C321.731875 858.94875 321.46375 859.8975 321.1875 860.875 C320 864 320 864 317 866 C316.67 866.99 316.34 867.98 316 869 C315.0206121 870.02019573 314.02104551 871.02149805 313 872 C312.67 872.66 312.34 873.32 312 874 C311.34 874 310.68 874 310 874 C309.34 875.32 308.68 876.64 308 878 C307.34 878 306.68 878 306 878 C305.896875 878.639375 305.79375 879.27875 305.6875 879.9375 C305.460625 880.618125 305.23375 881.29875 305 882 C304.01 882.33 303.02 882.66 302 883 C300.79117904 885.00016466 300.79117904 885.00016466 300 887 C299.34 887 298.68 887 298 887 C297.938125 887.53625 297.87625 888.0725 297.8125 888.625 C295.89773231 894.22201324 291.10221618 897.84644178 286.6875 901.5 C284.75444683 903.14332242 284.75444683 903.14332242 282.5 906 C280.08366828 908.89959807 277.59450016 911.0958477 274.703125 913.484375 C273.03045627 914.97289671 271.65316633 916.5087213 270.25 918.25 C268 921 268 921 265 923 C264.01 923 263.02 923 262 923 C261.34 924.32 260.68 925.64 260 927 C259.34 927 258.68 927 258 927 C257.34 928.32 256.68 929.64 256 931 C255.01 931 254.02 931 253 931 C252.67 931.99 252.34 932.98 252 934 C249.93783068 936.45496347 247.83336981 937.5833151 245 939 C244.67 939.66 244.34 940.32 244 941 C242.02111039 941.72693904 240.02045442 942.39816251 238 943 C238 943.66 238 944.32 238 945 C237.401875 945.268125 236.80375 945.53625 236.1875 945.8125 C233.9700287 946.87296728 233.9700287 946.87296728 232.5 948.5625 C230.72539815 950.26316011 229.38993744 950.58794182 227 951 C227 951.66 227 952.32 227 953 C225.02 953.66 223.04 954.32 221 955 C221 955.66 221 956.32 221 957 C219.02 957.66 217.04 958.32 215 959 C215 959.66 215 960.32 215 961 C212.35261084 962.4606285 211.10551666 963 208 963 C207.67 963.99 207.34 964.98 207 966 C205.02 966.33 203.04 966.66 201 967 C200.67 967.99 200.34 968.98 200 970 C198.35 970.33 196.7 970.66 195 971 C195 971.66 195 972.32 195 973 C192.36 973.66 189.72 974.32 187 975 C187 975.66 187 976.32 187 977 C184.36 977.66 181.72 978.32 179 979 C179 979.66 179 980.32 179 981 C176.36 981.66 173.72 982.32 171 983 C171 983.66 171 984.32 171 985 C167.7 985.66 164.4 986.32 161 987 C161 987.66 161 988.32 161 989 C157.62902617 990.49821059 155.79557881 991 152 991 C152 991.66 152 992.32 152 993 C148.12315913 994.19287411 145.08378077 995 141 995 C141 995.66 141 996.32 141 997 C136.73383684 998.13764351 133.43513689 999 129 999 C129 999.66 129 1000.32 129 1001 C124.73383684 1002.13764351 121.43513689 1003 117 1003 C117 1003.66 117 1004.32 117 1005 C107.58997722 1007.29612756 107.58997722 1007.29612756 103 1007 C103 1007.66 103 1008.32 103 1009 C91.47835991 1011.29612756 91.47835991 1011.29612756 86 1011 C86 1011.66 86 1012.32 86 1013 C64.39260417 1016.58165209 64.39260417 1016.58165209 55 1016 C55 1016.66 55 1017.32 55 1018 C35.40067934 1020.28774621 15.90229224 1020.28335257 -3.79570222 1020.24679029 C-8.58745721 1020.24012844 -13.37920309 1020.24517964 -18.17095947 1020.24867249 C-27.52015526 1020.25367796 -36.86931529 1020.24812119 -46.21850662 1020.23882218 C-57.11094166 1020.22838097 -68.0033692 1020.2285098 -78.89580829 1020.22899476 C-98.31742788 1020.22949372 -117.73903091 1020.22037435 -137.16064453 1020.20581055 C-156.00960593 1020.19168353 -174.85855277 1020.18464172 -193.70751953 1020.18530273 C-195.45396087 1020.18536267 -195.45396087 1020.18536267 -197.23568384 1020.18542381 C-198.39797194 1020.18546417 -199.56026004 1020.18550452 -200.75776899 1020.1855461 C-222.24111668 1020.18623485 -243.7244582 1020.1803578 -265.2078039 1020.17139288 C-272.8053592 1020.16837321 -280.40291337 1020.16731299 -288.00046921 1020.16686058 C-297.2382712 1020.16618032 -306.47606276 1020.16174088 -315.71386032 1020.15252777 C-320.42896814 1020.14789617 -325.14406257 1020.14486934 -329.85917282 1020.14612198 C-334.16733749 1020.1472111 -338.47547245 1020.14373525 -342.78363092 1020.13647345 C-344.34889869 1020.13464943 -345.91416949 1020.13454011 -347.4794374 1020.13624074 C-349.59272401 1020.1382841 -351.70591118 1020.13428088 -353.81918907 1020.12863445 C-354.99714464 1020.12793003 -356.1751002 1020.1272256 -357.38875139 1020.12649983 C-360 1020 -360 1020 -361 1019 C-361.27314815 1013.26388889 -361.27314815 1013.26388889 -361 1011 C-360.34 1010.34 -359.68 1009.68 -359 1009 C-358.01 1009 -357.02 1009 -356 1009 C-356 1008.34 -356 1007.68 -356 1007 C-349.6221448 1005.82706111 -343.49678438 1004.70469162 -337 1005 C-337 1004.34 -337 1003.68 -337 1003 C-335.10507994 1002.66151348 -333.20901534 1002.32943089 -331.3125 1002 C-330.25675781 1001.814375 -329.20101562 1001.62875 -328.11328125 1001.4375 C-325.35095938 1001.04931926 -322.78257957 1000.91740024 -320 1001 C-320 1000.34 -320 999.68 -320 999 C-318.58461283 998.66127487 -317.16762037 998.32925376 -315.75 998 C-314.96109375 997.814375 -314.1721875 997.62875 -313.359375 997.4375 C-311 997 -311 997 -307 997 C-307 996.34 -307 995.68 -307 995 C-303.12315913 993.80712589 -300.08378077 993 -296 993 C-296 992.34 -296 991.68 -296 991 C-293.03 990.34 -290.06 989.68 -287 989 C-287 988.34 -287 987.68 -287 987 C-284.03 986.34 -281.06 985.68 -278 985 C-278 984.34 -278 983.68 -278 983 C-275.36 982.34 -272.72 981.68 -270 981 C-270 980.34 -270 979.68 -270 979 C-267.36 978.34 -264.72 977.68 -262 977 C-262 976.34 -262 975.68 -262 975 C-259.35261084 973.5393715 -258.10551666 973 -255 973 C-255 972.34 -255 971.68 -255 971 C-252.69 970.34 -250.38 969.68 -248 969 C-248 968.34 -248 967.68 -248 967 C-246.02 966.34 -244.04 965.68 -242 965 C-242 964.34 -242 963.68 -242 963 C-240.02 962.34 -238.04 961.68 -236 961 C-236 960.34 -236 959.68 -236 959 C-234.02 958.34 -232.04 957.68 -230 957 C-230 956.34 -230 955.68 -230 955 C-227 953 -227 953 -224 953 C-223.34 951.68 -222.68 950.36 -222 949 C-221.34 949 -220.68 949 -220 949 C-220 948.34 -220 947.68 -220 947 C-219.38125 946.731875 -218.7625 946.46375 -218.125 946.1875 C-215.7004767 945.04443152 -215.7004767 945.04443152 -214 942 C-213.01 941.67 -212.02 941.34 -211 941 C-209.80326313 939.5705643 -208.61090185 938.13695144 -207.453125 936.67578125 C-205.42758297 934.33987391 -203.08825097 932.48444198 -200.70703125 930.5234375 C-198.99888936 928.99900881 -197.61128763 927.41418446 -196.1875 925.625 C-195.465625 924.75875 -194.74375 923.8925 -194 923 C-193.34 923 -192.68 923 -192 923 C-191.71125 922.195625 -191.4225 921.39125 -191.125 920.5625 C-190 918 -190 918 -188 917 C-186.86649466 914.98330173 -186.86649466 914.98330173 -186 913 C-185.34 913 -184.68 913 -184 913 C-183.34 911.02 -182.68 909.04 -182 907 C-181.34 907 -180.68 907 -180 907 C-179.34 905.02 -178.68 903.04 -178 901 C-177.34 901 -176.68 901 -176 901 C-175.87625 900.13375 -175.7525 899.2675 -175.625 898.375 C-175.01941879 895.10486147 -174.11693965 892.12743101 -173 889 C-172.34 889 -171.68 889 -171 889 C-169.2746671 878.00100278 -169.88635731 867.03699454 -171 856 C-171.66 856 -172.32 856 -173 856 C-173.50588147 854.08487728 -174.00448391 852.16783078 -174.5 850.25 C-174.7784375 849.18265625 -175.056875 848.1153125 -175.34375 847.015625 C-176 844 -176 844 -176 840 C-176.66 840 -177.32 840 -178 840 C-178.66 836.7 -179.32 833.4 -180 830 C-180.66 830 -181.32 830 -182 830 C-183.25664978 827.09399739 -184 825.20395416 -184 822 C-184.66 822 -185.32 822 -186 822 C-187.25664978 819.09399739 -188 817.20395416 -188 814 C-188.99 813.67 -189.98 813.34 -191 813 C-191.33 811.35 -191.66 809.7 -192 808 C-192.66 808 -193.32 808 -194 808 C-193.99777939 809.17462296 -193.99555878 810.34924591 -193.99327087 811.5594635 C-193.97298393 822.63853896 -193.95800108 833.71761064 -193.94818783 844.79670048 C-193.94297312 850.49232318 -193.9359011 856.18793086 -193.92456055 861.88354492 C-193.91368151 867.38188766 -193.90771252 872.88021597 -193.90512276 878.37856865 C-193.90327756 880.47447372 -193.89967436 882.57037802 -193.89426994 884.66627693 C-193.88699296 887.60574159 -193.88601187 890.5451469 -193.88647461 893.48461914 C-193.88287933 894.34777237 -193.87928406 895.2109256 -193.87557983 896.10023499 C-193.88363534 900.84077016 -194.20676557 905.32450148 -195 910 C-195.99 910.33 -196.98 910.66 -198 911 C-198.185625 911.8353125 -198.185625 911.8353125 -198.375 912.6875 C-199.87604026 918.24134896 -205.08161175 922.0800162 -209.36328125 925.609375 C-211.16934873 927.09319398 -211.16934873 927.09319398 -213.25 929.375 C-215 931 -215 931 -218 931 C-218.66 932.32 -219.32 933.64 -220 935 C-220.66 935 -221.32 935 -222 935 C-222.33 935.99 -222.66 936.98 -223 938 C-223.99 938.33 -224.98 938.66 -226 939 C-226.680625 939.680625 -227.36125 940.36125 -228.0625 941.0625 C-229.0215625 942.0215625 -229.0215625 942.0215625 -230 943 C-230.66 943 -231.32 943 -232 943 C-232 943.66 -232 944.32 -232 945 C-235 947 -235 947 -238 947 C-238.33 947.99 -238.66 948.98 -239 950 C-239.99 950.33 -240.98 950.66 -242 951 C-242.33 951.66 -242.66 952.32 -243 953 C-245.62581138 954.57548683 -246.87099787 955 -250 955 C-250.33 955.99 -250.66 956.98 -251 958 C-252.65 958.33 -254.3 958.66 -256 959 C-256 959.66 -256 960.32 -256 961 C-258.64738916 962.4606285 -259.89448334 963 -263 963 C-263.33 963.99 -263.66 964.98 -264 966 C-265.98 966.33 -267.96 966.66 -270 967 C-270 967.66 -270 968.32 -270 969 C-270.66 969 -271.32 969 -272 969 C-271.39292984 959.66145265 -270.73941193 950.32917607 -270 941 C-269.34 941 -268.68 941 -268 941 C-268 723.2 -268 505.4 -268 281 C-268.66 281 -269.32 281 -270 281 C-270.33776684 279.2508503 -270.67003671 277.50063855 -271 275.75 C-271.185625 274.77546875 -271.37125 273.8009375 -271.5625 272.796875 C-272 270 -272 270 -272 266 C-272.66 266 -273.32 266 -274 266 C-274.309375 264.9171875 -274.309375 264.9171875 -274.625 263.8125 C-276.45122709 260.0770355 -278.74286807 258.56412513 -282 256 C-282.33 255.34 -282.66 254.68 -283 254 C-285.01669827 252.86649466 -285.01669827 252.86649466 -287 252 C-287 251.34 -287 250.68 -287 250 C-289.97 249.34 -292.94 248.68 -296 248 C-296 247.34 -296 246.68 -296 246 C-297.19625 245.855625 -298.3925 245.71125 -299.625 245.5625 C-303.1005158 245.12960657 -306.54950034 244.60383744 -310 244 C-310 243.34 -310 242.68 -310 242 C-311.03640625 241.93941406 -312.0728125 241.87882813 -313.140625 241.81640625 C-314.51042873 241.73196629 -315.88021975 241.64732003 -317.25 241.5625 C-317.93191406 241.52318359 -318.61382812 241.48386719 -319.31640625 241.44335938 C-322.70519971 241.22950348 -325.68872298 240.82781925 -329 240 C-328.67 270.69 -328.34 301.38 -328 333 C-326.68 333.66 -325.36 334.32 -324 335 C-322.72105661 336.4707849 -321.44444157 337.94552308 -320.23828125 339.4765625 C-318.89533482 341.18911095 -318.89533482 341.18911095 -316.6875 343.25 C-315 345 -315 345 -315 347 C-314.34 347 -313.68 347 -313 347 C-310.45334775 354.79912252 -310.27388409 362.15820978 -313 370 C-313.66 370.33 -314.32 370.66 -315 371 C-316.13350534 373.01669827 -316.13350534 373.01669827 -317 375 C-317.66 375 -318.32 375 -319 375 C-320.30062431 378.81516464 -319.89369853 382.27561763 -319.5625 386.25 C-319.46066406 387.51328125 -319.35882813 388.7765625 -319.25390625 390.078125 C-319.17011719 391.04234375 -319.08632813 392.0065625 -319 393 C-318.34 393 -317.68 393 -317 393 C-314.70387244 406.6332574 -314.70387244 406.6332574 -315 413 C-314.34 413 -313.68 413 -313 413 C-312.49045093 416.33194499 -311.99412986 419.66573634 -311.5 423 C-311.35691406 423.93457031 -311.21382813 424.86914062 -311.06640625 425.83203125 C-310.2649739 431.28940391 -309.84390673 436.48470461 -310 442 C-309.34 442 -308.68 442 -308 442 C-306.71153094 451.70953473 -305.65942331 461.18003888 -306 471 C-305.34 471 -304.68 471 -304 471 C-304 481.56 -304 492.12 -304 503 C-304.66 503 -305.32 503 -306 503 C-305.95875 504.03125 -305.9175 505.0625 -305.875 506.125 C-305.99575149 509.86829627 -306.64872018 512.53734547 -308 516 C-308.66 516 -309.32 516 -310 516 C-310.0825 516.94875 -310.165 517.8975 -310.25 518.875 C-310.62125 520.421875 -310.62125 520.421875 -311 522 C-313 523.125 -313 523.125 -315 524 C-315.80528889 526.05000871 -315.80528889 526.05000871 -316 528 C-316.99 528 -317.98 528 -319 528 C-319.33 528.99 -319.66 529.98 -320 531 C-321.65 531.33 -323.3 531.66 -325 532 C-325 532.66 -325 533.32 -325 534 C-327.79607623 534.79091257 -330.28475241 535.12818608 -333.1875 535.1328125 C-333.96867187 535.13410156 -334.74984375 535.13539063 -335.5546875 535.13671875 C-336.36164063 535.13285156 -337.16859375 535.12898437 -338 535.125 C-338.80695313 535.12886719 -339.61390625 535.13273438 -340.4453125 535.13671875 C-341.22648437 535.13542969 -342.00765625 535.13414062 -342.8125 535.1328125 C-343.87404297 535.13112061 -343.87404297 535.13112061 -344.95703125 535.12939453 C-347.07712733 534.99511502 -348.95957563 534.57716498 -351 534 C-351 533.34 -351 532.68 -351 532 C-352.19625 531.814375 -353.3925 531.62875 -354.625 531.4375 C-359.06547252 530.34713486 -361.14094019 528.23602311 -363.96875 524.75390625 C-365 523 -365 523 -365 520 C-365.99 519.67 -366.98 519.34 -368 519 C-368.33 516.69 -368.66 514.38 -369 512 C-369.66 512 -370.32 512 -371 512 C-374.91253828 491.84344117 -373.02489238 471.27315785 -371 451 C-370.34 451 -369.68 451 -369 451 C-369.04125 449.824375 -369.0825 448.64875 -369.125 447.4375 C-369.14703168 440.56361475 -368.00111843 433.78436509 -367 427 C-366.34 427 -365.68 427 -365 427 C-364.90912109 425.71416016 -364.90912109 425.71416016 -364.81640625 424.40234375 C-364.38856464 418.56395127 -363.940837 412.77942728 -363 407 C-362.34 407 -361.68 407 -361 407 C-360.93941406 406.20335937 -360.87882812 405.40671875 -360.81640625 404.5859375 C-359.98418278 394.06151142 -359.98418278 394.06151142 -359 389 C-358.34 389 -357.68 389 -357 389 C-356.91909029 387.37581255 -356.86085005 385.75048255 -356.8125 384.125 C-356.77769531 383.22007812 -356.74289062 382.31515625 -356.70703125 381.3828125 C-356.85205078 380.20332031 -356.85205078 380.20332031 -357 379 C-357.99 378.34 -358.98 377.68 -360 377 C-360.33 376.01 -360.66 375.02 -361 374 C-361.66 373.67 -362.32 373.34 -363 373 C-364.41644354 368.90805199 -365.26260116 365.33291912 -365 361 C-365.66 361 -366.32 361 -367 361 C-367 358.36 -367 355.72 -367 353 C-366.34 353 -365.68 353 -365 353 C-364.7834375 351.3603125 -364.7834375 351.3603125 -364.5625 349.6875 C-363.6255522 343.54528667 -361.97131319 341.70411571 -357 338 C-354.625 337.1875 -354.625 337.1875 -353 337 C-353 336.34 -353 335.68 -353 335 C-351.68 334.34 -350.36 333.68 -349 333 C-348.67 301.32 -348.34 269.64 -348 237 C-350.97 237 -353.94 237 -357 237 C-359.02321415 236.86527944 -361.04512294 236.70429135 -363.0625 236.5 C-364.00222656 236.4071875 -364.94195312 236.314375 -365.91015625 236.21875 C-366.59980469 236.1465625 -367.28945313 236.074375 -368 236 C-368 235.34 -368 234.68 -368 234 C-368.58007812 234.02320313 -369.16015625 234.04640625 -369.7578125 234.0703125 C-374.56482308 234.18136555 -378.54712601 234.06352697 -383 232 C-385.67927341 227.98108988 -385.15601248 225.75838077 -385 221 C-383.68 220.67 -382.36 220.34 -381 220 C-381 219.34 -381 218.68 -381 218 C-377.69442657 217.00916433 -374.68946103 216.87104315 -371.24609375 216.8671875 C-370.14458984 216.86589844 -369.04308594 216.86460937 -367.90820312 216.86328125 C-366.19020508 216.86908203 -366.19020508 216.86908203 -364.4375 216.875 C-362.71370117 216.86919922 -362.71370117 216.86919922 -360.95507812 216.86328125 C-359.85486328 216.86457031 -358.75464844 216.86585938 -357.62109375 216.8671875 C-356.6148999 216.86831543 -355.60870605 216.86944336 -354.57202148 216.87060547 C-352 217 -352 217 -349 218 C-349.00222061 217.05833984 -349.00444122 216.11667969 -349.00672913 215.14648438 C-349.02713914 206.20405514 -349.04205723 197.26163073 -349.05181217 188.31918335 C-349.05699611 183.72352109 -349.06401056 179.12787787 -349.07543945 174.53222656 C-349.08642995 170.08422665 -349.09231049 165.63624488 -349.09487724 161.18823242 C-349.09670274 159.50447301 -349.1002662 157.82071442 -349.10573006 156.13696289 C-349.19456931 127.58370794 -349.19456931 127.58370794 -347 121 C-344 119 -344 119 -341 119 C-341 118.34 -341 117.68 -341 117 C-337.38026598 115.68373308 -334.90432869 115 -331 115 C-331 114.34 -331 113.68 -331 113 C-327.12315913 111.80712589 -324.08378077 111 -320 111 C-320 110.34 -320 109.68 -320 109 C-315.05 108.01 -315.05 108.01 -310 107 C-310 106.34 -310 105.68 -310 105 C-306.12315913 103.80712589 -303.08378077 103 -299 103 C-299 102.34 -299 101.68 -299 101 C-295.12315913 99.80712589 -292.08378077 99 -288 99 C-288 98.34 -288 97.68 -288 97 C-283.05 96.01 -283.05 96.01 -278 95 C-278 94.34 -278 93.68 -278 93 C-272.555 92.01 -272.555 92.01 -267 91 C-267 90.34 -267 89.68 -267 89 C-261.555 88.01 -261.555 88.01 -256 87 C-256 86.34 -256 85.68 -256 85 C-252.7 84.34 -249.4 83.68 -246 83 C-246 82.34 -246 81.68 -246 81 C-240.555 80.01 -240.555 80.01 -235 79 C-235 78.34 -235 77.68 -235 77 C-233.7625 76.67 -232.525 76.34 -231.25 76 C-230.55390625 75.814375 -229.8578125 75.62875 -229.140625 75.4375 C-227 75 -227 75 -223 75 C-223 74.34 -223 73.68 -223 73 C-219.12315913 71.80712589 -216.08378077 71 -212 71 C-212 70.34 -212 69.68 -212 69 C-208.38026598 67.68373308 -205.90432869 67 -202 67 C-202 66.34 -202 65.68 -202 65 C-200.23050388 64.49528803 -198.45934777 63.99639315 -196.6875 63.5 C-195.70136719 63.2215625 -194.71523438 62.943125 -193.69921875 62.65625 C-191 62 -191 62 -188 62 C-188 61.34 -188 60.68 -188 60 C-186.7625 59.67 -185.525 59.34 -184.25 59 C-183.55390625 58.814375 -182.8578125 58.62875 -182.140625 58.4375 C-180 58 -180 58 -176 58 C-176 57.34 -176 56.68 -176 56 C-172.38026598 54.68373308 -169.90432869 54 -166 54 C-166 53.34 -166 52.68 -166 52 C-162.12315913 50.80712589 -159.08378077 50 -155 50 C-155 49.34 -155 48.68 -155 48 C-151.38026598 46.68373308 -148.90432869 46 -145 46 C-145 45.34 -145 44.68 -145 44 C-141.12315913 42.80712589 -138.08378077 42 -134 42 C-134 41.34 -134 40.68 -134 40 C-130.12315913 38.80712589 -127.08378077 38 -123 38 C-123 37.34 -123 36.68 -123 36 C-119.38026598 34.68373308 -116.90432869 34 -113 34 C-113 33.34 -113 32.68 -113 32 C-109.12315913 30.80712589 -106.08378077 30 -102 30 C-102 29.34 -102 28.68 -102 28 C-98.12315913 26.80712589 -95.08378077 26 -91 26 C-91 25.34 -91 24.68 -91 24 C-87.38026598 22.68373308 -84.90432869 22 -81 22 C-81 21.34 -81 20.68 -81 20 C-75.555 19.01 -75.555 19.01 -70 18 C-70 17.34 -70 16.68 -70 16 C-66.12315913 14.80712589 -63.08378077 14 -59 14 C-59 13.34 -59 12.68 -59 12 C-55.38026598 10.68373308 -52.90432869 10 -49 10 C-49 9.34 -49 8.68 -49 8 C-45.12315913 6.80712589 -42.08378077 6 -38 6 C-38 5.34 -38 4.68 -38 4 C-34.38026598 2.68373308 -31.90432869 2 -28 2 C-28 1.34 -28 0.68 -28 0 C-18.36605198 -2.90836167 -9.68466778 -2.54024073 0 0 Z M-329 133 C-329 161.05 -329 189.1 -329 218 C-286.43 218 -243.86 218 -200 218 C-198.25437471 198.95643319 -198.25437471 198.95643319 -198 180 C-197.34 180 -196.68 180 -196 180 C-196 177.03 -196 174.06 -196 171 C-197.32 171 -198.64 171 -200 171 C-200 170.34 -200 169.68 -200 169 C-201.5823006 168.66179834 -203.16589375 168.32964061 -204.75 168 C-206.07257813 167.7215625 -206.07257813 167.7215625 -207.421875 167.4375 C-210.22143965 166.88846325 -210.22143965 166.88846325 -214 167 C-214 166.34 -214 165.68 -214 165 C-215.41538717 164.66127487 -216.83237963 164.32925376 -218.25 164 C-219.03890625 163.814375 -219.8278125 163.62875 -220.640625 163.4375 C-223.25556002 162.87845172 -223.25556002 162.87845172 -227 163 C-227 162.34 -227 161.68 -227 161 C-228.7491497 160.66223316 -230.49936145 160.32996329 -232.25 160 C-233.22453125 159.814375 -234.1990625 159.62875 -235.203125 159.4375 C-238.18684279 158.89696983 -238.18684279 158.89696983 -242 159 C-242 158.34 -242 157.68 -242 157 C-248.91159038 155.27071163 -248.91159038 155.27071163 -256 155 C-256 154.34 -256 153.68 -256 153 C-257.5823006 152.66179834 -259.16589375 152.32964061 -260.75 152 C-262.07257813 151.7215625 -262.07257813 151.7215625 -263.421875 151.4375 C-266.22143965 150.88846325 -266.22143965 150.88846325 -270 151 C-270 150.34 -270 149.68 -270 149 C-276.91159038 147.27071163 -276.91159038 147.27071163 -284 147 C-284 146.34 -284 145.68 -284 145 C-285.56116819 144.66048381 -287.12401338 144.32867456 -288.6875 144 C-289.55761719 143.814375 -290.42773438 143.62875 -291.32421875 143.4375 C-293.93712964 143.01027953 -296.35813038 142.92383799 -299 143 C-299 142.34 -299 141.68 -299 141 C-305.91159038 139.27071163 -305.91159038 139.27071163 -313 139 C-313 138.34 -313 137.68 -313 137 C-314.56116819 136.66048381 -316.12401338 136.32867456 -317.6875 136 C-318.55761719 135.814375 -319.42773438 135.62875 -320.32421875 135.4375 C-322.93712964 135.01027953 -325.35813038 134.92383799 -328 135 C-328.33 134.34 -328.66 133.68 -329 133 Z M-62 218 C-62 218.66 -62 219.32 -62 220 C-62.70640625 219.97679687 -63.4128125 219.95359375 -64.140625 219.9296875 C-74.52405552 219.74706435 -84.69261774 220.84902611 -95 222 C-95 222.66 -95 223.32 -95 224 C-97.64 224 -100.28 224 -103 224 C-102.34 225.98 -101.68 227.96 -101 230 C-100.34 230 -99.68 230 -99 230 C-98.7215625 231.299375 -98.7215625 231.299375 -98.4375 232.625 C-96.78323839 236.50891856 -95.02481924 237.94117404 -91.79296875 240.5 C-89.17221119 242.6925292 -87.18389115 245.37933062 -85 248 C-83.2533388 249.59219456 -81.46030148 251.10620485 -79.63671875 252.609375 C-78 254 -78 254 -75.75 256.375 C-74.03162353 258.34022555 -74.03162353 258.34022555 -71 258 C-70.01 259.98 -70.01 259.98 -69 262 C-68.34 262 -67.68 262 -67 262 C-66.01 263.98 -66.01 263.98 -65 266 C-64.01 266 -63.02 266 -62 266 C-61.67 266.99 -61.34 267.98 -61 269 C-58.66796984 271.64296752 -57.38326722 272.87224426 -54 274 C-53.175 275.010625 -52.35 276.02125 -51.5 277.0625 C-50.675 278.031875 -49.85 279.00125 -49 280 C-48.01 280 -47.02 280 -46 280 C-45.67 281.65 -45.34 283.3 -45 285 C-44.34 285 -43.68 285 -43 285 C-43 287.31 -43 289.62 -43 292 C-43.66 292 -44.32 292 -45 292 C-45 292.66 -45 293.32 -45 294 C-45.66 294 -46.32 294 -47 294 C-47 294.66 -47 295.32 -47 296 C-48.98 296 -50.96 296 -53 296 C-53 295.34 -53 294.68 -53 294 C-53.804375 293.71125 -54.60875 293.4225 -55.4375 293.125 C-58 292 -58 292 -59 290 C-61.62581138 288.42451317 -62.87099787 288 -66 288 C-66.33 287.01 -66.66 286.02 -67 285 C-68.485 284.505 -68.485 284.505 -70 284 C-70.474375 283.505 -70.94875 283.01 -71.4375 282.5 C-72.90035754 280.83155318 -72.90035754 280.83155318 -75.0625 280.5625 C-77 280 -77 280 -78.25 277.9375 C-78.4975 277.298125 -78.745 276.65875 -79 276 C-79.99 276 -80.98 276 -82 276 C-82.33 275.01 -82.66 274.02 -83 273 C-84.4294357 271.80326313 -85.86304856 270.61090185 -87.32421875 269.453125 C-89.0894073 267.92247199 -90.51534799 266.30195231 -92 264.5 C-93.92244843 262.17704148 -95.6478852 260.46009567 -98 258.5 C-100.97290927 256.02257561 -103.28120376 253.44797385 -105.703125 250.453125 C-106.95780703 248.86712389 -106.95780703 248.86712389 -109 248 C-110.125 245.9375 -110.125 245.9375 -111 244 C-111.66 244 -112.32 244 -113 244 C-113.268125 243.05125 -113.53625 242.1025 -113.8125 241.125 C-114.74986588 237.74732727 -114.74986588 237.74732727 -118 236 C-118.33 235.01 -118.66 234.02 -119 233 C-120.49722089 230.66788932 -120.49722089 230.66788932 -123 229 C-127.87064982 228.60720566 -132.19958086 229.03991617 -137 230 C-137 230.66 -137 231.32 -137 232 C-138.32 232 -139.64 232 -141 232 C-141 232.66 -141 233.32 -141 234 C-140.34 234 -139.68 234 -139 234 C-138.855625 234.598125 -138.71125 235.19625 -138.5625 235.8125 C-137.61634791 239.49198034 -136.71071567 241.40223081 -134 244 C-133.67 244.66 -133.34 245.32 -133 246 C-132.34 246 -131.68 246 -131 246 C-130.34 247.32 -129.68 248.64 -129 250 C-128.34 250 -127.68 250 -127 250 C-126.896875 250.598125 -126.79375 251.19625 -126.6875 251.8125 C-125.89505679 254.33391022 -124.88056492 255.19465768 -123 257 C-122.5359375 257.9590625 -122.5359375 257.9590625 -122.0625 258.9375 C-120.75071051 261.4839149 -119.14774484 263.12072327 -117 265 C-116.34 265 -115.68 265 -115 265 C-114.896875 265.639375 -114.79375 266.27875 -114.6875 266.9375 C-114.460625 267.618125 -114.23375 268.29875 -114 269 C-112.515 269.495 -112.515 269.495 -111 270 C-109.8125 272.0625 -109.8125 272.0625 -109 274 C-108.34 274 -107.68 274 -107 274 C-106.34 275.32 -105.68 276.64 -105 278 C-104.34 278 -103.68 278 -103 278 C-102.9071875 278.804375 -102.9071875 278.804375 -102.8125 279.625 C-100.90054314 285.21379699 -96.11531382 288.83952336 -91.703125 292.484375 C-90.03045627 293.97289671 -88.65316633 295.5087213 -87.25 297.25 C-85.11220714 300.13659999 -85.11220714 300.13659999 -82 302 C-81.01 302 -80.02 302 -79 302 C-78.34 303.32 -77.68 304.64 -77 306 C-76.34 306 -75.68 306 -75 306 C-74.34 307.32 -73.68 308.64 -73 310 C-72.34 310 -71.68 310 -71 310 C-71 310.66 -71 311.32 -71 312 C-70.38125 312.268125 -69.7625 312.53625 -69.125 312.8125 C-67 314 -67 314 -65 317 C-63.515 317.495 -63.515 317.495 -62 318 C-61.525625 318.495 -61.05125 318.99 -60.5625 319.5 C-58.74806281 321.24185971 -57.44440923 321.57855013 -55 322 C-55 322.66 -55 323.32 -55 324 C-54.360625 324.28875 -53.72125 324.5775 -53.0625 324.875 C-51 326 -51 326 -50 328 C-47.37418862 329.57548683 -46.12900213 330 -43 330 C-43 330.66 -43 331.32 -43 332 C-38.7362719 334.35910353 -38.7362719 334.35910353 -34 335 C-34 335.66 -34 336.32 -34 337 C-31.09399739 338.25664978 -29.20395416 339 -26 339 C-26 339.66 -26 340.32 -26 341 C-22.62902617 342.49821059 -20.79557881 343 -17 343 C-17 343.66 -17 344.32 -17 345 C-13.12315913 346.19287411 -10.08378077 347 -6 347 C-6 347.66 -6 348.32 -6 349 C-0.23918159 350.2982126 5.08739655 351.25706972 11 351 C12.35439668 348.29120665 12.06501451 345.99066732 12 343 C12.66 343 13.32 343 14 343 C15.7494618 336.59784929 15.7494618 336.59784929 16 330 C16.66 330 17.32 330 18 330 C19.28297723 322.58851545 20.25515919 315.52719602 20 308 C20.66 308 21.32 308 22 308 C22 297.77 22 287.54 22 277 C21.34 277 20.68 277 20 277 C20.04125 275.906875 20.0825 274.81375 20.125 273.6875 C20.14420838 268.33796618 19.07503069 263.22157765 18 258 C17.34 258 16.68 258 16 258 C15.7834375 256.14375 15.7834375 256.14375 15.5625 254.25 C15.21311498 251.43495501 14.79620634 248.7298503 14 246 C13.34 246 12.68 246 12 246 C11.01 242.04 11.01 242.04 10 238 C9.34 238 8.68 238 8 238 C7.01 235.03 7.01 235.03 6 232 C5.34 232 4.68 232 4 232 C3.7834375 231.1028125 3.7834375 231.1028125 3.5625 230.1875 C3.1127561 228.43849596 2.57107659 226.71322977 2 225 C1.01 224.505 1.01 224.505 0 224 C-1.125 221.9375 -1.125 221.9375 -2 220 C-2.66 220 -3.32 220 -4 220 C-4 219.34 -4 218.68 -4 218 C-6.99897422 216.50051289 -10.07905583 216.858048 -13.3671875 216.8671875 C-14.11036224 216.86586823 -14.85353699 216.86454895 -15.61923218 216.8631897 C-18.03786368 216.86127097 -20.45638026 216.86760689 -22.875 216.875 C-23.69013062 216.87588623 -24.50526123 216.87677246 -25.34509277 216.87768555 C-37.58737112 216.89341413 -49.78407243 217.14058801 -62 218 Z M19 218 C19.33 219.32 19.66 220.64 20 222 C20.66 222 21.32 222 22 222 C22.144375 222.94875 22.28875 223.8975 22.4375 224.875 C22.82935399 227.8934494 22.82935399 227.8934494 24 230 C24.66 230 25.32 230 26 230 C26.66 233.3 27.32 236.6 28 240 C28.66 240 29.32 240 30 240 C30.66 243.3 31.32 246.6 32 250 C32.66 250 33.32 250 34 250 C34.144375 251.19625 34.28875 252.3925 34.4375 253.625 C34.87039343 257.1005158 35.39616256 260.54950034 36 264 C36.66 264 37.32 264 38 264 C39.24246477 282.77009273 39.09757225 301.22367476 38 320 C37.01 320.495 37.01 320.495 36 321 C39.465 320.505 39.465 320.505 43 320 C43 319.34 43 318.68 43 318 C47.455 317.01 47.455 317.01 52 316 C52 315.34 52 314.68 52 314 C53.423125 313.7834375 53.423125 313.7834375 54.875 313.5625 C57.8934494 313.17064601 57.8934494 313.17064601 60 312 C60 311.34 60 310.68 60 310 C60.94875 309.896875 61.8975 309.79375 62.875 309.6875 C66.29107501 309.31460705 66.29107501 309.31460705 68 306 C70.125 304.8125 70.125 304.8125 72 304 C72 303.34 72 302.68 72 302 C72.86625 301.814375 73.7325 301.62875 74.625 301.4375 C78.50492936 299.78493749 79.94076988 298.03662467 82.484375 294.796875 C83.95789768 293.04991512 85.42620646 291.80091847 87.25 290.4375 C90.33286921 287.70495683 90.85872609 285.86277322 92 282 C92.99 281.67 93.98 281.34 95 281 C96.64820195 278.39757586 97 277.13751221 97 274 C97.99 273.67 98.98 273.34 100 273 C100.33 271.35 100.66 269.7 101 268 C101.66 268 102.32 268 103 268 C104.19287411 264.12315913 105 261.08378077 105 257 C105.66 257 106.32 257 107 257 C108.38529821 251.54538831 109.2396943 246.63281599 109 241 C109.66 241 110.32 241 111 241 C111 238.03 111 235.06 111 232 C109.68 232 108.36 232 107 232 C107 231.34 107 230.68 107 230 C105.27192682 229.66104344 103.54248026 229.32908475 101.8125 229 C100.84957031 228.814375 99.88664062 228.62875 98.89453125 228.4375 C96.2065794 228.03122388 93.71228981 227.92066428 91 228 C91 227.34 91 226.68 91 226 C81.05411528 224.27851598 81.05411528 224.27851598 71 224 C71 223.34 71 222.68 71 222 C60.25368837 220.52682142 49.85299084 219.71564216 39 220 C39 219.34 39 218.68 39 218 C32.4 218 25.8 218 19 218 Z M128 237 C127.03929566 239.88211302 126.89418117 241.69850044 126.9375 244.6875 C126.94652344 245.49574219 126.95554687 246.30398437 126.96484375 247.13671875 C126.97644531 247.75160156 126.98804688 248.36648437 127 249 C126.34 249 125.68 249 125 249 C124.34 254.28 123.68 259.56 123 265 C122.34 265 121.68 265 121 265 C120.34 267.97 119.68 270.94 119 274 C118.34 274 117.68 274 117 274 C116.34 276.64 115.68 279.28 115 282 C114.34 282 113.68 282 113 282 C112.71125 282.969375 112.4225 283.93875 112.125 284.9375 C111 288 111 288 109 289 C108.505 289.99 108.505 289.99 108 291 C107 293 107 293 105 294 C104.71125 294.969375 104.4225 295.93875 104.125 296.9375 C103 300 103 300 100.875 301.375 C100.25625 301.58125 99.6375 301.7875 99 302 C99 302.66 99 303.32 99 304 C98.34 304 97.68 304 97 304 C96.525625 304.804375 96.05125 305.60875 95.5625 306.4375 C94 309 94 309 91 310 C89.7934375 311.4540625 89.7934375 311.4540625 88.5625 312.9375 C86.32386073 315.61294693 85.1749837 316.82408011 82 318 C82 318.66 82 319.32 82 320 C81.401875 320.144375 80.80375 320.28875 80.1875 320.4375 C78.43849596 320.8872439 76.71322977 321.42892341 75 322 C74.67 322.66 74.34 323.32 74 324 C72.02111039 324.72693904 70.02045442 325.39816251 68 326 C68 326.66 68 327.32 68 328 C64.04 328.99 64.04 328.99 60 330 C60 330.66 60 331.32 60 332 C59.175 332.12375 58.35 332.2475 57.5 332.375 C53.60227933 333.07102155 49.83260331 334.00880949 46 335 C46 335.66 46 336.32 46 337 C44.14375 337.2165625 44.14375 337.2165625 42.25 337.4375 C39.43495501 337.78688502 36.7298503 338.20379366 34 339 C34 339.66 34 340.32 34 341 C33.34 341 32.68 341 32 341 C30.50178941 344.37097383 30 346.20442119 30 350 C29.34 350 28.68 350 28 350 C28 350.99 28 351.98 28 353 C31.96 353 35.92 353 40 353 C40 352.34 40 351.68 40 351 C40.60585938 351.02320313 41.21171875 351.04640625 41.8359375 351.0703125 C48.14875029 351.20628078 53.86431929 350.46211966 60 349 C60 348.34 60 347.68 60 347 C61.85625 346.7834375 61.85625 346.7834375 63.75 346.5625 C66.56504499 346.21311498 69.2701497 345.79620634 72 345 C72 344.34 72 343.68 72 343 C73.6396875 342.7834375 73.6396875 342.7834375 75.3125 342.5625 C78.93122987 342.11711896 78.93122987 342.11711896 82 341 C82 340.34 82 339.68 82 339 C82.84884766 338.81824219 82.84884766 338.81824219 83.71484375 338.6328125 C84.44832031 338.46523438 85.18179688 338.29765625 85.9375 338.125 C86.66839844 337.96257812 87.39929688 337.80015625 88.15234375 337.6328125 C90.20700294 337.17038477 90.20700294 337.17038477 91 335 C92.97522846 333.95191959 94.97481509 332.9479589 97 332 C97 331.34 97 330.68 97 330 C97.969375 329.71125 98.93875 329.4225 99.9375 329.125 C103.10664203 328.35785318 103.10664203 328.35785318 104 326 C104.5775 325.7525 105.155 325.505 105.75 325.25 C108.34782002 323.80676665 109.75468015 321.95588314 111.578125 319.6484375 C113.61663972 317.2851045 115.96418661 315.37424625 118.35546875 313.37890625 C122.59252874 309.83493598 122.59252874 309.83493598 125 305 C125.680625 304.34 126.36125 303.68 127.0625 303 C129.34789761 301.10497717 129.34789761 301.10497717 129 298 C129.99 297.67 130.98 297.34 132 297 C132.33 296.01 132.66 295.02 133 294 C133.66 293.67 134.32 293.34 135 293 C136.57548683 290.37418862 137 289.12900213 137 286 C137.66 286 138.32 286 139 286 C140.25664978 283.09399739 141 281.20395416 141 278 C141.66 278 142.32 278 143 278 C144.25664978 275.09399739 145 273.20395416 145 270 C145.66 270 146.32 270 147 270 C148.49821059 266.62902617 149 264.79557881 149 261 C149.66 261 150.32 261 151 261 C152.19287411 257.12315913 153 254.08378077 153 250 C153.66 250 154.32 250 155 250 C155 248.68 155 247.36 155 246 C151.12315913 244.80712589 148.08378077 244 144 244 C144 243.34 144 242.68 144 242 C140.12315913 240.80712589 137.08378077 240 133 240 C133 239.34 133 238.68 133 238 C131.35 237.67 129.7 237.34 128 237 Z M-165 242 C-165.33 242.66 -165.66 243.32 -166 244 C-166.61875 244.30164063 -167.2375 244.60328125 -167.875 244.9140625 C-170.23178084 246.11844683 -171.35254867 247.32463938 -173 249.375 C-174.72957552 251.49087665 -176.38298856 253.36283127 -178.375 255.25 C-180.34022555 256.96837647 -180.34022555 256.96837647 -180 260 C-180.99 260.33 -181.98 260.66 -183 261 C-183.33 262.65 -183.66 264.3 -184 266 C-184.66 266 -185.32 266 -186 266 C-186.66 269.3 -187.32 272.6 -188 276 C-188.66 276 -189.32 276 -190 276 C-191.2982126 281.76081841 -192.25706972 287.08739655 -192 293 C-192.66 293 -193.32 293 -194 293 C-195.13009697 304.11368197 -195.11658919 315.15481772 -195.0625 326.3125 C-195.05747197 328.13216022 -195.05291138 329.95182179 -195.04882812 331.77148438 C-195.03793265 336.1810237 -195.02074084 340.59049645 -195 345 C-194.01 345 -193.02 345 -192 345 C-191.71125 344.030625 -191.4225 343.06125 -191.125 342.0625 C-190 339 -190 339 -188 338 C-187.27306096 336.02111039 -186.60183749 334.02045442 -186 332 C-185.34 332 -184.68 332 -184 332 C-183.34 329.36 -182.68 326.72 -182 324 C-181.34 324 -180.68 324 -180 324 C-178.5393715 321.35261084 -178 320.10551666 -178 317 C-177.34 317 -176.68 317 -176 317 C-175.49440092 315.56445975 -174.9957251 314.1264798 -174.5 312.6875 C-174.2215625 311.88699219 -173.943125 311.08648437 -173.65625 310.26171875 C-172.86066893 307.91230578 -172.86066893 307.91230578 -173 305 C-172.34 305 -171.68 305 -171 305 C-169.80712589 301.12315913 -169 298.08378077 -169 294 C-168.34 294 -167.68 294 -167 294 C-165.2505382 287.59784929 -165.2505382 287.59784929 -165 281 C-164.34 281 -163.68 281 -163 281 C-161.27572915 272.57203517 -161.27572915 272.57203517 -161 264 C-160.34 264 -159.68 264 -159 264 C-157.96612488 255.9874678 -157.89533352 248.07094823 -158 240 C-161.12900213 240 -162.37418862 240.42451317 -165 242 Z M-142 264 C-142.33 267.96 -142.66 271.92 -143 276 C-143.66 276 -144.32 276 -145 276 C-145.33872513 277.41538717 -145.67074624 278.83237963 -146 280.25 C-146.2784375 281.43335938 -146.2784375 281.43335938 -146.5625 282.640625 C-147.12154828 285.25556002 -147.12154828 285.25556002 -147 289 C-147.66 289 -148.32 289 -149 289 C-149.66 292.96 -150.32 296.92 -151 301 C-151.66 301 -152.32 301 -153 301 C-153.66 304.63 -154.32 308.26 -155 312 C-155.66 312 -156.32 312 -157 312 C-157.66 314.97 -158.32 317.94 -159 321 C-159.66 321 -160.32 321 -161 321 C-161.66 323.97 -162.32 326.94 -163 330 C-163.66 330 -164.32 330 -165 330 C-166.25664978 332.90600261 -167 334.79604584 -167 338 C-168.485 338.495 -168.485 338.495 -170 339 C-170.33 340.98 -170.66 342.96 -171 345 C-171.66 345 -172.32 345 -173 345 C-175.2013866 348.80427492 -175.2013866 348.80427492 -176 353 C-176.66 353 -177.32 353 -178 353 C-178.66 354.98 -179.32 356.96 -180 359 C-180.66 359 -181.32 359 -182 359 C-182.66 360.98 -183.32 362.96 -184 365 C-184.66 365 -185.32 365 -186 365 C-186.66 366.98 -187.32 368.96 -188 371 C-188.66 371 -189.32 371 -190 371 C-190.66 372.98 -191.32 374.96 -192 377 C-192.66 377 -193.32 377 -194 377 C-195.33302502 379.66605004 -195.12286972 381.68278373 -195.12025452 384.66934204 C-195.12162918 385.8753154 -195.12300385 387.08128876 -195.12442017 388.32380676 C-195.12088081 389.66720606 -195.11724599 391.0106051 -195.11352539 392.35400391 C-195.11324344 393.76314797 -195.11340141 395.17229218 -195.1139679 396.58143616 C-195.11425555 400.41385292 -195.10836398 404.24623857 -195.10139394 408.07864809 C-195.09515508 412.0811882 -195.09455618 416.08372897 -195.09336853 420.08627319 C-195.09025679 427.66877209 -195.08204551 435.25125662 -195.07201904 442.83374918 C-195.06085304 451.46482646 -195.05534622 460.09590442 -195.05032361 468.72698712 C-195.03986277 486.48466624 -195.02226636 504.24233196 -195 522 C-194.67 521.34 -194.34 520.68 -194 520 C-191.9375 518.875 -191.9375 518.875 -190 518 C-190 517.34 -190 516.68 -190 516 C-189.01 515.67 -188.02 515.34 -187 515 C-186.67 514.01 -186.34 513.02 -186 512 C-184.5459375 510.7934375 -184.5459375 510.7934375 -183.0625 509.5625 C-180.19615451 507.16412928 -179.49270899 506.18444585 -178 503 C-176.33333333 501.33333333 -174.66666667 499.66666667 -173 498 C-173 497.34 -173 496.68 -173 496 C-172.34 496 -171.68 496 -171 496 C-170.60748047 495.09894531 -170.60748047 495.09894531 -170.20703125 494.1796875 C-168.92577201 491.86595723 -167.75192918 490.7454167 -165.6875 489.125 C-163.27134649 487.14586386 -161.2051094 485.18645852 -159.25 482.75 C-157 480 -157 480 -154 478 C-154 477.34 -154 476.68 -154 476 C-153.360625 475.896875 -152.72125 475.79375 -152.0625 475.6875 C-151.381875 475.460625 -150.70125 475.23375 -150 475 C-149.67 474.01 -149.34 473.02 -149 472 C-147.0625 470.875 -147.0625 470.875 -145 470 C-144.34 469.67 -143.68 469.34 -143 469 C-143 468.34 -143 467.68 -143 467 C-142.2575 466.7525 -141.515 466.505 -140.75 466.25 C-137.76976913 464.89534961 -136.10080748 463.4898459 -134 461 C-134 460.34 -134 459.68 -134 459 C-133.360625 458.896875 -132.72125 458.79375 -132.0625 458.6875 C-131.381875 458.460625 -130.70125 458.23375 -130 458 C-129.67 457.01 -129.34 456.02 -129 455 C-127.67203709 454.64587656 -126.33783393 454.31478446 -125 454 C-123.97895449 453.02149805 -122.9793879 452.02019573 -122 451 C-120.66666667 450.33333333 -119.33333333 449.66666667 -118 449 C-117.67 448.34 -117.34 447.68 -117 447 C-114.9375 445.875 -114.9375 445.875 -113 445 C-113 444.34 -113 443.68 -113 443 C-111.5459375 442.566875 -111.5459375 442.566875 -110.0625 442.125 C-106.89335797 441.35785318 -106.89335797 441.35785318 -106 439 C-104.66666667 438.33333333 -103.33333333 437.66666667 -102 437 C-100.9805881 436.01979625 -99.97753644 435.02196992 -99 434 C-98.34 433.67 -97.68 433.34 -97 433 C-97 432.34 -97 431.68 -97 431 C-96.0925 430.7525 -95.185 430.505 -94.25 430.25 C-90.87503877 428.95193799 -89.25897879 427.78028159 -87 425 C-87 424.34 -87 423.68 -87 423 C-85.7934375 422.566875 -85.7934375 422.566875 -84.5625 422.125 C-81.8673532 421.26737432 -81.8673532 421.26737432 -81 419 C-78.9375 417.875 -78.9375 417.875 -77 417 C-77 416.34 -77 415.68 -77 415 C-75.68 414.34 -74.36 413.68 -73 413 C-73 412.34 -73 411.68 -73 411 C-72.46375 410.938125 -71.9275 410.87625 -71.375 410.8125 C-65.78123315 408.89884292 -62.16187344 404.10896245 -58.5078125 399.69921875 C-56.23862125 397.14196954 -53.66303613 395.14200732 -51 393 C-48.19602916 390.58546955 -47.12190853 389.36572559 -45.9375 385.8125 C-45.628125 384.884375 -45.31875 383.95625 -45 383 C-44.01 382.67 -43.02 382.34 -42 382 C-41.30062468 380.68352881 -40.63270867 379.34977849 -40 378 C-39.34 377.67 -38.68 377.34 -38 377 C-37.67 376.01 -37.34 375.02 -37 374 C-36.67 373.01 -36.34 372.02 -36 371 C-35.34 370.67 -34.68 370.34 -34 370 C-32.6250851 367.09740189 -32 365.23861295 -32 362 C-31.01 361.67 -30.02 361.34 -29 361 C-29 360.01 -29 359.02 -29 358 C-31.31 357.67 -33.62 357.34 -36 357 C-36 356.34 -36 355.68 -36 355 C-38.97 354.01 -38.97 354.01 -42 353 C-42 352.34 -42 351.68 -42 351 C-44.31 350.34 -46.62 349.68 -49 349 C-49 348.34 -49 347.68 -49 347 C-49.804375 346.71125 -50.60875 346.4225 -51.4375 346.125 C-54 345 -54 345 -55 343 C-57.62581138 341.42451317 -58.87099787 341 -62 341 C-62.33 340.01 -62.66 339.02 -63 338 C-63.99 337.67 -64.98 337.34 -66 337 C-67 336 -68 335 -69 334 C-69.70125 333.649375 -70.4025 333.29875 -71.125 332.9375 C-73 332 -73 332 -74 330 C-74.61875 329.690625 -75.2375 329.38125 -75.875 329.0625 C-78 328 -78 328 -79.5 326.4375 C-80.91497631 324.82871716 -80.91497631 324.82871716 -83.0625 324.5625 C-85 324 -85 324 -86.25 321.9375 C-86.4975 321.298125 -86.745 320.65875 -87 320 C-87.66 320 -88.32 320 -89 320 C-89.33 319.01 -89.66 318.02 -90 317 C-91.485 316.505 -91.485 316.505 -93 316 C-94.39453125 314.546875 -94.39453125 314.546875 -95.8125 312.75 C-97.7947676 310.34191195 -99.57373766 308.52188528 -102 306.5 C-104.89959807 304.08366828 -107.0958477 301.59450016 -109.484375 298.703125 C-110.97289671 297.03045627 -112.5087213 295.65316633 -114.25 294.25 C-117 292 -117 292 -119 289 C-119.66 289 -120.32 289 -121 289 C-121.103125 288.360625 -121.20625 287.72125 -121.3125 287.0625 C-121.539375 286.381875 -121.76625 285.70125 -122 285 C-123.485 284.505 -123.485 284.505 -125 284 C-126.1875 281.9375 -126.1875 281.9375 -127 280 C-127.66 280 -128.32 280 -129 280 C-129.4021875 278.576875 -129.4021875 278.576875 -129.8125 277.125 C-130.74986588 273.74732727 -130.74986588 273.74732727 -134 272 C-134.495 270.515 -134.495 270.515 -135 269 C-136.86545339 267.11864786 -138.89280629 265.62429515 -141 264 C-141.33 264 -141.66 264 -142 264 Z M-13 365 C-13.33 366.32 -13.66 367.64 -14 369 C-14.66 369 -15.32 369 -16 369 C-17.25664978 371.90600261 -18 373.79604584 -18 377 C-18.66 377 -19.32 377 -20 377 C-20.28875 377.804375 -20.5775 378.60875 -20.875 379.4375 C-22 382 -22 382 -24 383 C-25.57548683 385.62581138 -26 386.87099787 -26 390 C-26.99 390.33 -27.98 390.66 -29 391 C-29.33 391.99 -29.66 392.98 -30 394 C-30.495 394.474375 -30.99 394.94875 -31.5 395.4375 C-33.16844682 396.90035754 -33.16844682 396.90035754 -33.4375 399.0625 C-34 401 -34 401 -36.0625 402.25 C-36.701875 402.4975 -37.34125 402.745 -38 403 C-38 403.66 -38 404.32 -38 405 C-38.639375 405.268125 -39.27875 405.53625 -39.9375 405.8125 C-42.33131686 406.88667752 -42.33131686 406.88667752 -43 410 C-44.98260426 411.68732277 -46.9832342 413.35366057 -49 415 C-49.66 415.99 -50.32 416.98 -51 418 C-51.99 418.33 -52.98 418.66 -54 419 C-55.68732277 420.98260426 -57.35366057 422.9832342 -59 425 C-59.99 425.66 -60.98 426.32 -62 427 C-62 427.66 -62 428.32 -62 429 C-62.639375 429.103125 -63.27875 429.20625 -63.9375 429.3125 C-64.618125 429.539375 -65.29875 429.76625 -66 430 C-66.33 430.99 -66.66 431.98 -67 433 C-68.99571323 433.67939174 -70.99594773 434.34561559 -73 435 C-73.66 435.99 -74.32 436.98 -75 438 C-75.99 438.33 -76.98 438.66 -78 439 C-80.2085766 440.87508162 -80.2085766 440.87508162 -82 443 C-82 443.66 -82 444.32 -82 445 C-82.639375 445.103125 -83.27875 445.20625 -83.9375 445.3125 C-84.618125 445.539375 -85.29875 445.76625 -86 446 C-86.33 446.99 -86.66 447.98 -87 449 C-88.875 449.625 -88.875 449.625 -91 450 C-94.36016893 451.12005631 -95.69064913 452.37211797 -98 455 C-98 455.66 -98 456.32 -98 457 C-98.8971875 457.2165625 -98.8971875 457.2165625 -99.8125 457.4375 C-104.17230222 458.49735611 -104.17230222 458.49735611 -107 462 C-108.485 462.495 -108.485 462.495 -110 463 C-112.2085766 464.87508162 -112.2085766 464.87508162 -114 467 C-114 467.66 -114 468.32 -114 469 C-114.5775 469.12375 -115.155 469.2475 -115.75 469.375 C-119.89928007 470.5275778 -121.66104268 471.59325121 -124.5 475 C-126.70340609 477.64408731 -127.86062523 478.83726861 -131 480 C-131 480.66 -131 481.32 -131 482 C-132.98 482.99 -132.98 482.99 -135 484 C-135 484.66 -135 485.32 -135 486 C-136.98 486.99 -136.98 486.99 -139 488 C-139 488.66 -139 489.32 -139 490 C-140.98 490.99 -140.98 490.99 -143 492 C-143 492.66 -143 493.32 -143 494 C-144.98 494.99 -144.98 494.99 -147 496 C-147 496.66 -147 497.32 -147 498 C-148.98 498.99 -148.98 498.99 -151 500 C-151 500.66 -151 501.32 -151 502 C-152.98 502.99 -152.98 502.99 -155 504 C-155 504.66 -155 505.32 -155 506 C-156.98 506.99 -156.98 506.99 -159 508 C-159 508.66 -159 509.32 -159 510 C-160.98 510.99 -160.98 510.99 -163 512 C-163 512.99 -163 513.98 -163 515 C-163.99 515.33 -164.98 515.66 -166 516 C-168.64296752 518.33203016 -169.87224426 519.61673278 -171 523 C-172 524 -173 525 -174 526 C-174.350625 526.70125 -174.70125 527.4025 -175.0625 528.125 C-176 530 -176 530 -178 531 C-179.57548683 533.62581138 -180 534.87099787 -180 538 C-180.99 538.33 -181.98 538.66 -183 539 C-183.33 539.99 -183.66 540.98 -184 542 C-184.66 542.33 -185.32 542.66 -186 543 C-187.57548683 545.62581138 -188 546.87099787 -188 550 C-188.99 550.33 -189.98 550.66 -191 551 C-191.33 552.65 -191.66 554.3 -192 556 C-192.66 556 -193.32 556 -194 556 C-194.28875 556.969375 -194.5775 557.93875 -194.875 558.9375 C-196 562 -196 562 -198 563 C-199.3749149 565.90259811 -200 567.76138705 -200 571 C-200.66 571 -201.32 571 -202 571 C-202.66 573.97 -203.32 576.94 -204 580 C-204.66 580 -205.32 580 -206 580 C-207.19287411 583.87684087 -208 586.91621923 -208 591 C-208.66 591 -209.32 591 -210 591 C-210.33 592.2375 -210.66 593.475 -211 594.75 C-211.185625 595.44609375 -211.37125 596.1421875 -211.5625 596.859375 C-212.13349349 599.28901861 -212.13349349 599.28901861 -212 603 C-212.66 603 -213.32 603 -214 603 C-215.2982126 608.76081841 -216.25706972 614.08739655 -216 620 C-216.66 620 -217.32 620 -218 620 C-218.76861456 626.10902295 -219.13812351 632.03852718 -219.09765625 638.19140625 C-219.0962413 639.02212143 -219.09482635 639.85283661 -219.09336853 640.70872498 C-219.0878317 643.32668875 -219.07529162 645.94456267 -219.0625 648.5625 C-219.05747681 650.35221229 -219.05291535 652.14192595 -219.04882812 653.93164062 C-219.03788308 658.28779433 -219.02066319 662.643882 -219 667 C-218.67 666.01 -218.34 665.02 -218 664 C-217.34 664 -216.68 664 -216 664 C-215.66089006 661.95928485 -215.32897296 659.91737379 -215 657.875 C-214.7215625 656.16957031 -214.7215625 656.16957031 -214.4375 654.4296875 C-214.03043951 651.23862398 -213.92190098 648.21182209 -214 645 C-213.34 645 -212.68 645 -212 645 C-211.66127487 643.58461283 -211.32925376 642.16762037 -211 640.75 C-210.814375 639.96109375 -210.62875 639.1721875 -210.4375 638.359375 C-209.87845172 635.74443998 -209.87845172 635.74443998 -210 632 C-209.34 632 -208.68 632 -208 632 C-207.67 630.7625 -207.34 629.525 -207 628.25 C-206.7215625 627.20585938 -206.7215625 627.20585938 -206.4375 626.140625 C-205.86650651 623.71098139 -205.86650651 623.71098139 -206 620 C-205.34 620 -204.68 620 -204 620 C-202.80712589 616.12315913 -202 613.08378077 -202 609 C-201.34 609 -200.68 609 -200 609 C-199.34 606.69 -198.68 604.38 -198 602 C-197.34 602 -196.68 602 -196 602 C-195.34 599.36 -194.68 596.72 -194 594 C-193.34 594 -192.68 594 -192 594 C-191.71125 593.030625 -191.4225 592.06125 -191.125 591.0625 C-190 588 -190 588 -188 587 C-187.26924352 584.6859378 -186.59861742 582.35171131 -186 580 C-185.34 580 -184.68 580 -184 580 C-183.566875 578.7934375 -183.566875 578.7934375 -183.125 577.5625 C-182 575 -182 575 -180 574 C-179.27306096 572.02111039 -178.60183749 570.02045442 -178 568 C-177.34 568 -176.68 568 -176 568 C-173.7986134 564.19572508 -173.7986134 564.19572508 -173 560 C-172.01 559.67 -171.02 559.34 -170 559 C-169.67 558.01 -169.34 557.02 -169 556 C-168.01 555.34 -167.02 554.68 -166 554 C-165.67 553.01 -165.34 552.02 -165 551 C-163.47355796 549.79833286 -161.94692366 548.59690572 -160.41796875 547.3984375 C-158.30249918 545.31210663 -157.86796002 542.7898715 -157 540 C-154.875 538.625 -154.875 538.625 -153 538 C-153 537.34 -153 536.68 -153 536 C-152.34 536 -151.68 536 -151 536 C-150.73832031 535.39929688 -150.47664063 534.79859375 -150.20703125 534.1796875 C-148.92577201 531.86595723 -147.75192918 530.7454167 -145.6875 529.125 C-143.2953899 527.16199007 -141.50817463 525.40980955 -139.5 523 C-137.07918825 520.0950259 -134.58218698 517.89560302 -131.6875 515.5 C-129.75444683 513.85667758 -129.75444683 513.85667758 -127.5 511 C-125.08272193 508.09926631 -122.594384 505.90209527 -119.69921875 503.515625 C-118.03309256 502.02951704 -116.6930537 500.50011731 -115.3125 498.75 C-113.21900175 496.26043451 -111.99173936 495.10805161 -109 494 C-109 493.34 -109 492.68 -109 492 C-107.68 491.34 -106.36 490.68 -105 490 C-105 489.34 -105 488.68 -105 488 C-103.68 487.34 -102.36 486.68 -101 486 C-101 485.34 -101 484.68 -101 484 C-100.13375 483.814375 -99.2675 483.62875 -98.375 483.4375 C-94.44897174 481.76530278 -92.85534033 479.86671693 -90.296875 476.55859375 C-89 475 -89 475 -87 474 C-87 473.34 -87 472.68 -87 472 C-86.195625 471.731875 -85.39125 471.46375 -84.5625 471.1875 C-83.716875 470.795625 -82.87125 470.40375 -82 470 C-81.67 469.01 -81.34 468.02 -81 467 C-78.9375 465.8125 -78.9375 465.8125 -77 465 C-77 464.34 -77 463.68 -77 463 C-75.68 462.34 -74.36 461.68 -73 461 C-73 460.34 -73 459.68 -73 459 C-72.46375 458.938125 -71.9275 458.87625 -71.375 458.8125 C-65.77798676 456.89773231 -62.15355822 452.10221618 -58.5 447.6875 C-56.25654676 445.16361511 -53.59104563 443.15920469 -51 441 C-49.4315511 439.2759035 -47.94093801 437.50416372 -46.45703125 435.70703125 C-45.08547515 434.10014113 -43.65178242 432.64546969 -42.125 431.1875 C-39.76773811 429.26919324 -39.76773811 429.26919324 -40 427 C-38.02 426.01 -38.02 426.01 -36 425 C-36 424.34 -36 423.68 -36 423 C-35.01 422.67 -34.02 422.34 -33 422 C-32.67 421.01 -32.34 420.02 -32 419 C-31.030625 418.195625 -30.06125 417.39125 -29.0625 416.5625 C-26.27163796 414.2272889 -25.3753034 413.17377709 -24 410 C-23.484375 409.505 -22.96875 409.01 -22.4375 408.5 C-20.82756672 407.07437419 -20.82756672 407.07437419 -20.5 404.875 C-20.335 404.25625 -20.17 403.6375 -20 403 C-19.01 402.67 -18.02 402.34 -17 402 C-16.67 401.01 -16.34 400.02 -16 399 C-15.34 398.67 -14.68 398.34 -14 398 C-12.42451317 395.37418862 -12 394.12900213 -12 391 C-11.01 390.67 -10.02 390.34 -9 390 C-8.67 389.01 -8.34 388.02 -8 387 C-7.01 386.505 -7.01 386.505 -6 386 C-5.26924352 383.6859378 -4.59861742 381.35171131 -4 379 C-3.34 379 -2.68 379 -2 379 C-0.74335022 376.09399739 0 374.20395416 0 371 C0.99 370.67 1.98 370.34 3 370 C2.67 369.01 2.34 368.02 2 367 C-2.95 366.34 -7.9 365.68 -13 365 Z " fill="#1F61A2" transform="translate(530,4)"/>
</svg>
